STARTFONT 2.1
COMMENT
COMMENT Converted from OpenType font "Raleway-Regular.ttf" by "otf2bdf 3.0".
COMMENT
FONT -League of Movable Type/Simutrans-Railway BDF-Medium-R-Normal--17-120-100-100-P-86-ISO10646-1
SIZE 12 100 100
FONTBOUNDINGBOX 26 20 -4 -4
STARTPROPERTIES 19
FOUNDRY "League of Movable Type/Simutrans"
FAMILY_NAME "Railway BDF"
WEIGHT_NAME "Medium"
SLANT "R"
SETWIDTH_NAME "Normal"
ADD_STYLE_NAME ""
PIXEL_SIZE 17
POINT_SIZE 120
RESOLUTION_X 100
RESOLUTION_Y 100
SPACING "P"
AVERAGE_WIDTH 86
CHARSET_REGISTRY "ISO10646"
CHARSET_ENCODING "1"
FONT_ASCENT 15
FONT_DESCENT 3
COPYRIGHT "Copyright (c) 2010 - 2013, Matt McInerney (matt@pixelspread.com), Pablo Impallari (impallari@gmail.com), Rodrigo Fuenzalida (hello@rfuenzalida.com) with Reserved Font Name "Raleway""
_OTF_FONTFILE "Raleway-Regular.ttf"
_OTF_PSNAME "Raleway-Regular"
ENDPROPERTIES
CHARS 598
STARTCHAR 0020
ENCODING 32
SWIDTH 240 0
DWIDTH 4 0
BBX 0 0 0 0
BITMAP
ENDCHAR
STARTCHAR 0021
ENCODING 33
SWIDTH 240 0
DWIDTH 4 0
BBX 1 12 2 0
BITMAP
80
80
80
80
80
80
80
80
00
00
80
80
ENDCHAR
STARTCHAR 0022
ENCODING 34
SWIDTH 300 0
DWIDTH 5 0
BBX 3 3 1 9
BITMAP
A0
A0
A0
ENDCHAR
STARTCHAR 0023
ENCODING 35
SWIDTH 720 0
DWIDTH 12 0
BBX 10 12 1 0
BITMAP
1880
1100
1100
FFC0
2100
2200
2200
FF80
4200
4400
4400
4400
ENDCHAR
STARTCHAR 0024
ENCODING 36
SWIDTH 660 0
DWIDTH 11 0
BBX 9 15 1 -1
BITMAP
0800
0800
3E00
4900
8800
8800
C800
7800
0F00
0980
0880
8880
C900
7E00
0800
ENDCHAR
STARTCHAR 0025
ENCODING 37
SWIDTH 720 0
DWIDTH 12 0
BBX 10 12 1 0
BITMAP
7040
98C0
8980
8900
7200
0400
0800
1380
3240
6440
4240
8380
ENDCHAR
STARTCHAR 0026
ENCODING 38
SWIDTH 660 0
DWIDTH 11 0
BBX 10 12 1 0
BITMAP
3C00
4400
4600
4400
2800
3000
5880
8C80
8780
8300
C380
3CC0
ENDCHAR
STARTCHAR 0027
ENCODING 39
SWIDTH 180 0
DWIDTH 3 0
BBX 1 3 1 9
BITMAP
80
80
80
ENDCHAR
STARTCHAR 0028
ENCODING 40
SWIDTH 300 0
DWIDTH 5 0
BBX 3 14 1 -1
BITMAP
20
20
40
40
80
80
80
80
80
80
C0
40
60
20
ENDCHAR
STARTCHAR 0029
ENCODING 41
SWIDTH 300 0
DWIDTH 5 0
BBX 3 14 1 -1
BITMAP
80
80
C0
40
40
20
20
20
20
40
40
40
80
80
ENDCHAR
STARTCHAR 002A
ENCODING 42
SWIDTH 300 0
DWIDTH 5 0
BBX 3 3 1 9
BITMAP
40
E0
E0
ENDCHAR
STARTCHAR 002B
ENCODING 43
SWIDTH 420 0
DWIDTH 7 0
BBX 5 6 1 3
BITMAP
20
20
20
F8
20
20
ENDCHAR
STARTCHAR 002C
ENCODING 44
SWIDTH 240 0
DWIDTH 4 0
BBX 1 2 1 -1
BITMAP
80
80
ENDCHAR
STARTCHAR 002D
ENCODING 45
SWIDTH 420 0
DWIDTH 7 0
BBX 5 1 1 4
BITMAP
F8
ENDCHAR
STARTCHAR 002E
ENCODING 46
SWIDTH 180 0
DWIDTH 3 0
BBX 1 2 1 0
BITMAP
80
80
ENDCHAR
STARTCHAR 002F
ENCODING 47
SWIDTH 600 0
DWIDTH 10 0
BBX 10 12 0 0
BITMAP
00C0
0180
0100
0200
0600
0400
0800
1800
1000
2000
6000
C000
ENDCHAR
STARTCHAR 0030
ENCODING 48
SWIDTH 600 0
DWIDTH 10 0
BBX 8 10 1 0
BITMAP
3C
62
C1
81
81
81
81
C1
62
3C
ENDCHAR
STARTCHAR 0031
ENCODING 49
SWIDTH 420 0
DWIDTH 7 0
BBX 6 10 1 0
BITMAP
10
70
D0
10
10
10
10
10
10
FC
ENDCHAR
STARTCHAR 0032
ENCODING 50
SWIDTH 540 0
DWIDTH 9 0
BBX 7 10 1 0
BITMAP
38
C4
82
06
04
18
60
C0
80
FE
ENDCHAR
STARTCHAR 0033
ENCODING 51
SWIDTH 540 0
DWIDTH 9 0
BBX 7 12 1 -2
BITMAP
78
C6
82
02
06
18
06
02
02
82
86
7C
ENDCHAR
STARTCHAR 0034
ENCODING 52
SWIDTH 540 0
DWIDTH 9 0
BBX 9 12 0 -2
BITMAP
0200
0600
0600
0A00
1200
3200
2200
4200
FF80
0200
0200
0200
ENDCHAR
STARTCHAR 0035
ENCODING 53
SWIDTH 540 0
DWIDTH 9 0
BBX 8 12 1 -2
BITMAP
7E
40
40
C0
BC
C6
82
03
03
82
C6
7C
ENDCHAR
STARTCHAR 0036
ENCODING 54
SWIDTH 600 0
DWIDTH 10 0
BBX 9 12 1 0
BITMAP
3C00
6200
4100
8000
9C00
E300
C100
8100
8180
C100
6300
3C00
ENDCHAR
STARTCHAR 0037
ENCODING 55
SWIDTH 540 0
DWIDTH 9 0
BBX 8 12 1 -2
BITMAP
FF
02
06
04
0C
08
18
10
30
20
60
C0
ENDCHAR
STARTCHAR 0038
ENCODING 56
SWIDTH 600 0
DWIDTH 10 0
BBX 8 12 1 0
BITMAP
3C
42
C1
81
42
3C
42
81
81
81
43
3C
ENDCHAR
STARTCHAR 0039
ENCODING 57
SWIDTH 600 0
DWIDTH 10 0
BBX 8 12 1 -2
BITMAP
3C
46
81
81
81
81
C3
3D
01
82
46
3C
ENDCHAR
STARTCHAR 003A
ENCODING 58
SWIDTH 180 0
DWIDTH 3 0
BBX 1 9 1 0
BITMAP
80
80
00
00
00
00
00
80
80
ENDCHAR
STARTCHAR 003B
ENCODING 59
SWIDTH 180 0
DWIDTH 3 0
BBX 1 10 1 -1
BITMAP
80
80
00
00
00
00
00
00
80
80
ENDCHAR
STARTCHAR 003C
ENCODING 60
SWIDTH 540 0
DWIDTH 9 0
BBX 7 9 1 0
BITMAP
02
0C
18
60
80
60
30
0C
02
ENDCHAR
STARTCHAR 003D
ENCODING 61
SWIDTH 420 0
DWIDTH 7 0
BBX 5 3 1 3
BITMAP
F8
00
F8
ENDCHAR
STARTCHAR 003E
ENCODING 62
SWIDTH 540 0
DWIDTH 9 0
BBX 7 9 1 0
BITMAP
80
C0
30
0C
06
0C
30
60
80
ENDCHAR
STARTCHAR 003F
ENCODING 63
SWIDTH 480 0
DWIDTH 8 0
BBX 6 12 1 0
BITMAP
78
84
84
04
04
08
30
20
20
00
20
20
ENDCHAR
STARTCHAR 0040
ENCODING 64
SWIDTH 840 0
DWIDTH 14 0
BBX 12 13 1 -2
BITMAP
0F00
30C0
4020
8F10
9090
8090
8F90
9090
9090
9190
4E60
2080
1F00
ENDCHAR
STARTCHAR 0041
ENCODING 65
SWIDTH 660 0
DWIDTH 11 0
BBX 11 12 0 0
BITMAP
0400
0600
0A00
0900
1100
1080
1080
3F80
2040
4040
4060
C020
ENDCHAR
STARTCHAR 0042
ENCODING 66
SWIDTH 660 0
DWIDTH 11 0
BBX 9 12 2 0
BITMAP
FE00
8300
8100
8100
8300
FC00
8300
8100
8180
8180
8300
FE00
ENDCHAR
STARTCHAR 0043
ENCODING 67
SWIDTH 720 0
DWIDTH 12 0
BBX 10 12 1 0
BITMAP
1F00
2180
4040
8000
8000
8000
8000
8000
C000
4040
2180
1F00
ENDCHAR
STARTCHAR 0044
ENCODING 68
SWIDTH 720 0
DWIDTH 12 0
BBX 9 12 2 0
BITMAP
FC00
8300
8100
8080
8080
8080
8080
8080
8080
8100
8300
FC00
ENDCHAR
STARTCHAR 0045
ENCODING 69
SWIDTH 600 0
DWIDTH 10 0
BBX 8 12 2 0
BITMAP
FE
80
80
80
80
FE
80
80
80
80
80
FF
ENDCHAR
STARTCHAR 0046
ENCODING 70
SWIDTH 600 0
DWIDTH 10 0
BBX 7 12 2 0
BITMAP
FE
80
80
80
80
FC
80
80
80
80
80
80
ENDCHAR
STARTCHAR 0047
ENCODING 71
SWIDTH 720 0
DWIDTH 12 0
BBX 10 12 1 0
BITMAP
1F00
2180
4040
8000
8000
8000
81C0
8040
C040
4040
21C0
1F40
ENDCHAR
STARTCHAR 0048
ENCODING 72
SWIDTH 780 0
DWIDTH 13 0
BBX 9 12 2 0
BITMAP
8080
8080
8080
8080
8080
FF80
8080
8080
8080
8080
8080
8080
ENDCHAR
STARTCHAR 0049
ENCODING 73
SWIDTH 240 0
DWIDTH 4 0
BBX 1 12 2 0
BITMAP
80
80
80
80
80
80
80
80
80
80
80
80
ENDCHAR
STARTCHAR 004A
ENCODING 74
SWIDTH 480 0
DWIDTH 8 0
BBX 7 12 0 0
BITMAP
02
02
02
02
02
02
02
02
06
04
84
78
ENDCHAR
STARTCHAR 004B
ENCODING 75
SWIDTH 660 0
DWIDTH 11 0
BBX 9 12 2 0
BITMAP
8180
8200
8400
8800
9800
B000
F800
C800
8400
8200
8300
8180
ENDCHAR
STARTCHAR 004C
ENCODING 76
SWIDTH 600 0
DWIDTH 10 0
BBX 8 12 2 0
BITMAP
80
80
80
80
80
80
80
80
80
80
80
FF
ENDCHAR
STARTCHAR 004D
ENCODING 77
SWIDTH 900 0
DWIDTH 15 0
BBX 11 12 2 0
BITMAP
8020
C060
C060
E0A0
A0A0
9120
9320
8A20
8E20
8420
8020
8020
ENDCHAR
STARTCHAR 004E
ENCODING 78
SWIDTH 780 0
DWIDTH 13 0
BBX 10 12 2 0
BITMAP
80C0
C0C0
C0C0
A0C0
B0C0
98C0
8CC0
84C0
82C0
81C0
81C0
80C0
ENDCHAR
STARTCHAR 004F
ENCODING 79
SWIDTH 780 0
DWIDTH 13 0
BBX 11 12 1 0
BITMAP
1F00
2180
4040
C040
8020
8020
8020
8020
8060
4040
2180
1F00
ENDCHAR
STARTCHAR 0050
ENCODING 80
SWIDTH 660 0
DWIDTH 11 0
BBX 8 12 2 0
BITMAP
FC
82
81
81
81
83
FE
80
80
80
80
80
ENDCHAR
STARTCHAR 0051
ENCODING 81
SWIDTH 780 0
DWIDTH 13 0
BBX 11 12 1 0
BITMAP
1F00
2180
4040
C040
8020
8020
8020
8020
8360
41C0
21C0
1F60
ENDCHAR
STARTCHAR 0052
ENCODING 82
SWIDTH 660 0
DWIDTH 11 0
BBX 8 12 2 0
BITMAP
FC
83
81
81
81
83
FE
84
84
82
83
81
ENDCHAR
STARTCHAR 0053
ENCODING 83
SWIDTH 600 0
DWIDTH 10 0
BBX 9 12 1 0
BITMAP
3E00
4100
8000
8000
C000
7800
0F00
0100
0180
8180
C100
3E00
ENDCHAR
STARTCHAR 0054
ENCODING 84
SWIDTH 600 0
DWIDTH 10 0
BBX 10 12 0 0
BITMAP
FFC0
0400
0400
0400
0400
0400
0400
0400
0400
0400
0400
0400
ENDCHAR
STARTCHAR 0055
ENCODING 85
SWIDTH 780 0
DWIDTH 13 0
BBX 11 12 1 0
BITMAP
C060
C060
C060
C060
C060
C060
C060
C040
4040
40C0
2180
1F00
ENDCHAR
STARTCHAR 0056
ENCODING 86
SWIDTH 720 0
DWIDTH 12 0
BBX 11 12 0 0
BITMAP
C020
4060
4040
2040
2080
1080
1180
1900
0900
0A00
0600
0600
ENDCHAR
STARTCHAR 0057
ENCODING 87
SWIDTH 1080 0
DWIDTH 18 0
BBX 18 12 0 0
BITMAP
C230C0
412080
612180
21C100
20C300
10C200
10C200
192400
092400
0A2C00
061800
061800
ENDCHAR
STARTCHAR 0058
ENCODING 88
SWIDTH 660 0
DWIDTH 11 0
BBX 11 12 0 0
BITMAP
C060
60C0
2180
1100
1A00
0C00
0C00
0A00
1100
2180
6080
C060
ENDCHAR
STARTCHAR 0059
ENCODING 89
SWIDTH 660 0
DWIDTH 11 0
BBX 11 12 0 0
BITMAP
C060
4040
2080
3180
1100
0A00
0E00
0400
0400
0400
0400
0400
ENDCHAR
STARTCHAR 005A
ENCODING 90
SWIDTH 660 0
DWIDTH 11 0
BBX 9 12 1 0
BITMAP
FF80
0180
0100
0200
0400
0800
1800
3000
2000
4000
8000
FF80
ENDCHAR
STARTCHAR 005B
ENCODING 91
SWIDTH 240 0
DWIDTH 4 0
BBX 3 13 1 -1
BITMAP
E0
C0
C0
C0
C0
C0
C0
C0
C0
C0
C0
C0
E0
ENDCHAR
STARTCHAR 005C
ENCODING 92
SWIDTH 600 0
DWIDTH 10 0
BBX 9 12 0 0
BITMAP
C000
6000
2000
1000
1800
0800
0C00
0400
0200
0300
0100
0080
ENDCHAR
STARTCHAR 005D
ENCODING 93
SWIDTH 240 0
DWIDTH 4 0
BBX 2 13 1 -1
BITMAP
C0
40
40
40
40
40
40
40
40
40
40
40
C0
ENDCHAR
STARTCHAR 005E
ENCODING 94
SWIDTH 540 0
DWIDTH 9 0
BBX 7 7 1 5
BITMAP
10
28
28
44
44
82
82
ENDCHAR
STARTCHAR 005F
ENCODING 95
SWIDTH 540 0
DWIDTH 9 0
BBX 7 1 1 -1
BITMAP
FE
ENDCHAR
STARTCHAR 0060
ENCODING 96
SWIDTH 240 0
DWIDTH 4 0
BBX 2 2 1 10
BITMAP
80
40
ENDCHAR
STARTCHAR 0061
ENCODING 97
SWIDTH 540 0
DWIDTH 9 0
BBX 7 9 1 0
BITMAP
7C
86
02
7E
C2
82
82
86
7A
ENDCHAR
STARTCHAR 0062
ENCODING 98
SWIDTH 600 0
DWIDTH 10 0
BBX 9 12 1 0
BITMAP
8000
8000
8000
9E00
A300
C100
8080
8080
8180
C100
A300
9E00
ENDCHAR
STARTCHAR 0063
ENCODING 99
SWIDTH 540 0
DWIDTH 9 0
BBX 8 9 1 0
BITMAP
3C
43
80
80
80
80
80
43
3C
ENDCHAR
STARTCHAR 0064
ENCODING 100
SWIDTH 660 0
DWIDTH 11 0
BBX 9 12 1 0
BITMAP
0100
0100
0100
3D00
4300
8100
8100
8100
8100
C100
6300
3D80
ENDCHAR
STARTCHAR 0065
ENCODING 101
SWIDTH 600 0
DWIDTH 10 0
BBX 8 9 1 0
BITMAP
3C
42
81
81
FF
80
80
43
3C
ENDCHAR
STARTCHAR 0066
ENCODING 102
SWIDTH 360 0
DWIDTH 6 0
BBX 6 12 0 0
BITMAP
1C
20
20
F8
20
20
20
20
20
20
20
20
ENDCHAR
STARTCHAR 0067
ENCODING 103
SWIDTH 660 0
DWIDTH 11 0
BBX 8 13 1 -4
BITMAP
3D
43
81
81
81
81
81
43
3D
01
81
C2
3C
ENDCHAR
STARTCHAR 0068
ENCODING 104
SWIDTH 600 0
DWIDTH 10 0
BBX 8 12 1 0
BITMAP
80
80
80
9E
A2
C3
81
81
81
81
81
81
ENDCHAR
STARTCHAR 0069
ENCODING 105
SWIDTH 240 0
DWIDTH 4 0
BBX 1 12 1 0
BITMAP
80
80
00
80
80
80
80
80
80
80
80
80
ENDCHAR
STARTCHAR 006A
ENCODING 106
SWIDTH 240 0
DWIDTH 4 0
BBX 5 15 -2 -3
BITMAP
18
18
00
18
18
18
18
18
18
18
18
18
18
10
F0
ENDCHAR
STARTCHAR 006B
ENCODING 107
SWIDTH 540 0
DWIDTH 9 0
BBX 8 12 1 0
BITMAP
80
80
80
83
84
88
90
B8
C8
84
82
83
ENDCHAR
STARTCHAR 006C
ENCODING 108
SWIDTH 300 0
DWIDTH 5 0
BBX 4 12 1 0
BITMAP
80
80
80
80
80
80
80
80
80
80
C0
70
ENDCHAR
STARTCHAR 006D
ENCODING 109
SWIDTH 960 0
DWIDTH 16 0
BBX 13 9 1 0
BITMAP
9C70
A288
C308
8208
8208
8208
8208
8208
8208
ENDCHAR
STARTCHAR 006E
ENCODING 110
SWIDTH 600 0
DWIDTH 10 0
BBX 8 9 1 0
BITMAP
9E
A2
C3
81
81
81
81
81
81
ENDCHAR
STARTCHAR 006F
ENCODING 111
SWIDTH 600 0
DWIDTH 10 0
BBX 8 9 1 0
BITMAP
3C
42
81
81
81
81
81
42
3C
ENDCHAR
STARTCHAR 0070
ENCODING 112
SWIDTH 600 0
DWIDTH 10 0
BBX 9 13 1 -4
BITMAP
9E00
A300
C100
8180
8080
8080
C100
A300
9E00
8000
8000
8000
8000
ENDCHAR
STARTCHAR 0071
ENCODING 113
SWIDTH 600 0
DWIDTH 10 0
BBX 9 13 1 -4
BITMAP
3D00
4300
8100
8100
8100
8100
8100
4300
3D00
0100
0100
0100
0180
ENDCHAR
STARTCHAR 0072
ENCODING 114
SWIDTH 360 0
DWIDTH 6 0
BBX 5 9 1 0
BITMAP
98
A0
C0
80
80
80
80
80
80
ENDCHAR
STARTCHAR 0073
ENCODING 115
SWIDTH 480 0
DWIDTH 8 0
BBX 8 9 0 0
BITMAP
3C
42
40
60
1C
02
01
C2
3C
ENDCHAR
STARTCHAR 0074
ENCODING 116
SWIDTH 360 0
DWIDTH 6 0
BBX 6 12 0 0
BITMAP
20
20
20
F8
20
20
20
20
20
20
20
3C
ENDCHAR
STARTCHAR 0075
ENCODING 117
SWIDTH 600 0
DWIDTH 10 0
BBX 8 9 1 0
BITMAP
81
81
81
81
81
81
C3
45
79
ENDCHAR
STARTCHAR 0076
ENCODING 118
SWIDTH 540 0
DWIDTH 9 0
BBX 9 9 0 0
BITMAP
C180
4100
4100
2200
2200
1600
1400
1400
0800
ENDCHAR
STARTCHAR 0077
ENCODING 119
SWIDTH 840 0
DWIDTH 14 0
BBX 14 9 0 0
BITMAP
C48C
4508
4318
2310
2310
1520
14A0
14C0
0840
ENDCHAR
STARTCHAR 0078
ENCODING 120
SWIDTH 540 0
DWIDTH 9 0
BBX 8 9 0 0
BITMAP
C1
62
24
1C
08
1C
24
62
C1
ENDCHAR
STARTCHAR 0079
ENCODING 121
SWIDTH 540 0
DWIDTH 9 0
BBX 9 13 0 -4
BITMAP
C080
4100
4100
2300
2200
1200
1400
1400
0C00
0800
0800
1000
3000
ENDCHAR
STARTCHAR 007A
ENCODING 122
SWIDTH 480 0
DWIDTH 8 0
BBX 7 9 1 0
BITMAP
FE
04
08
18
10
20
40
80
FE
ENDCHAR
STARTCHAR 007B
ENCODING 123
SWIDTH 240 0
DWIDTH 4 0
BBX 3 12 1 0
BITMAP
60
40
40
40
40
C0
C0
40
40
40
40
60
ENDCHAR
STARTCHAR 007C
ENCODING 124
SWIDTH 240 0
DWIDTH 4 0
BBX 1 15 1 -2
BITMAP
80
80
80
80
80
80
80
80
80
80
80
80
80
80
80
ENDCHAR
STARTCHAR 007D
ENCODING 125
SWIDTH 240 0
DWIDTH 4 0
BBX 2 12 1 0
BITMAP
C0
40
40
40
40
40
40
40
40
40
40
C0
ENDCHAR
STARTCHAR 007E
ENCODING 126
SWIDTH 540 0
DWIDTH 9 0
BBX 7 2 1 4
BITMAP
62
9C
ENDCHAR
STARTCHAR 00A0
ENCODING 160
SWIDTH 240 0
DWIDTH 4 0
BBX 0 0 0 0
BITMAP
ENDCHAR
STARTCHAR 00A1
ENCODING 161
SWIDTH 240 0
DWIDTH 4 0
BBX 1 12 2 0
BITMAP
80
80
00
00
80
80
80
80
80
80
80
80
ENDCHAR
STARTCHAR 00A2
ENCODING 162
SWIDTH 600 0
DWIDTH 10 0
BBX 8 13 1 -2
BITMAP
08
08
3C
4B
88
88
88
88
C8
6B
3C
08
08
ENDCHAR
STARTCHAR 00A3
ENCODING 163
SWIDTH 480 0
DWIDTH 8 0
BBX 7 12 1 0
BITMAP
38
44
80
40
40
FC
20
20
20
40
C0
FE
ENDCHAR
STARTCHAR 00A4
ENCODING 164
SWIDTH 540 0
DWIDTH 9 0
BBX 7 8 1 2
BITMAP
82
BA
44
42
C2
44
BA
82
ENDCHAR
STARTCHAR 00A5
ENCODING 165
SWIDTH 660 0
DWIDTH 11 0
BBX 11 12 0 0
BITMAP
C060
6040
20C0
1080
1100
0900
1F80
0600
1F80
0400
0400
0400
ENDCHAR
STARTCHAR 00A6
ENCODING 166
SWIDTH 240 0
DWIDTH 4 0
BBX 2 15 1 -2
BITMAP
C0
C0
C0
C0
C0
C0
C0
00
C0
C0
C0
C0
C0
C0
C0
ENDCHAR
STARTCHAR 00A7
ENCODING 167
SWIDTH 540 0
DWIDTH 9 0
BBX 7 13 1 -1
BITMAP
78
C4
80
80
78
84
86
46
3C
02
02
C6
7C
ENDCHAR
STARTCHAR 00A8
ENCODING 168
SWIDTH 360 0
DWIDTH 6 0
BBX 4 1 1 11
BITMAP
90
ENDCHAR
STARTCHAR 00A9
ENCODING 169
SWIDTH 840 0
DWIDTH 14 0
BBX 12 12 1 0
BITMAP
1F80
3040
4F20
9990
9010
A010
A010
B010
9890
4F20
3040
1F80
ENDCHAR
STARTCHAR 00AA
ENCODING 170
SWIDTH 420 0
DWIDTH 7 0
BBX 5 7 1 5
BITMAP
70
88
78
88
88
88
78
ENDCHAR
STARTCHAR 00AB
ENCODING 171
SWIDTH 600 0
DWIDTH 10 0
BBX 8 7 1 1
BITMAP
11
32
44
98
4C
22
11
ENDCHAR
STARTCHAR 00AC
ENCODING 172
SWIDTH 600 0
DWIDTH 10 0
BBX 8 4 1 2
BITMAP
FF
01
01
01
ENDCHAR
STARTCHAR 00AD
ENCODING 173
SWIDTH 600 0
DWIDTH 10 0
BBX 8 1 1 4
BITMAP
FF
ENDCHAR
STARTCHAR 00AE
ENCODING 174
SWIDTH 840 0
DWIDTH 14 0
BBX 12 12 1 0
BITMAP
1F80
3040
5F20
9090
9090
9090
9F10
9110
9110
50A0
3040
1F80
ENDCHAR
STARTCHAR 00AF
ENCODING 175
SWIDTH 420 0
DWIDTH 7 0
BBX 5 1 1 11
BITMAP
F8
ENDCHAR
STARTCHAR 00B0
ENCODING 176
SWIDTH 300 0
DWIDTH 5 0
BBX 3 3 1 9
BITMAP
C0
A0
C0
ENDCHAR
STARTCHAR 00B1
ENCODING 177
SWIDTH 480 0
DWIDTH 8 0
BBX 6 8 1 1
BITMAP
30
30
30
FC
30
30
00
FC
ENDCHAR
STARTCHAR 00B2
ENCODING 178
SWIDTH 420 0
DWIDTH 7 0
BBX 5 7 1 7
BITMAP
70
88
08
30
40
80
F8
ENDCHAR
STARTCHAR 00B3
ENCODING 179
SWIDTH 420 0
DWIDTH 7 0
BBX 5 7 1 7
BITMAP
70
88
08
70
08
88
F0
ENDCHAR
STARTCHAR 00B4
ENCODING 180
SWIDTH 240 0
DWIDTH 4 0
BBX 2 2 1 10
BITMAP
40
80
ENDCHAR
STARTCHAR 00B5
ENCODING 181
SWIDTH 660 0
DWIDTH 11 0
BBX 8 13 1 -4
BITMAP
C1
C1
C1
C1
C1
C1
C3
C7
B9
80
80
80
80
ENDCHAR
STARTCHAR 00B6
ENCODING 182
SWIDTH 600 0
DWIDTH 10 0
BBX 8 14 1 -2
BITMAP
3F
CA
8A
8A
8A
8A
CA
7E
0A
0A
0A
0A
0A
0A
ENDCHAR
STARTCHAR 00B7
ENCODING 183
SWIDTH 180 0
DWIDTH 3 0
BBX 1 2 1 4
BITMAP
80
80
ENDCHAR
STARTCHAR 00B8
ENCODING 184
SWIDTH 300 0
DWIDTH 5 0
BBX 4 3 0 -3
BITMAP
40
70
F0
ENDCHAR
STARTCHAR 00B9
ENCODING 185
SWIDTH 300 0
DWIDTH 5 0
BBX 3 6 1 6
BITMAP
C0
40
40
40
40
E0
ENDCHAR
STARTCHAR 00BA
ENCODING 186
SWIDTH 480 0
DWIDTH 8 0
BBX 6 6 1 6
BITMAP
78
88
84
84
8C
78
ENDCHAR
STARTCHAR 00BB
ENCODING 187
SWIDTH 600 0
DWIDTH 10 0
BBX 8 7 1 1
BITMAP
90
CC
22
11
22
4C
88
ENDCHAR
STARTCHAR 00BC
ENCODING 188
SWIDTH 840 0
DWIDTH 14 0
BBX 12 12 1 0
BITMAP
C020
4040
4080
4080
4100
4220
E460
08D0
0910
11F0
2010
4010
ENDCHAR
STARTCHAR 00BD
ENCODING 189
SWIDTH 900 0
DWIDTH 15 0
BBX 13 12 1 0
BITMAP
C060
4040
4080
4100
4200
4470
E488
0808
1030
2040
4080
40F8
ENDCHAR
STARTCHAR 00BE
ENCODING 190
SWIDTH 840 0
DWIDTH 14 0
BBX 13 12 1 0
BITMAP
7010
8820
0860
7040
0880
8910
7230
0450
0890
09F8
1010
2010
ENDCHAR
STARTCHAR 00BF
ENCODING 191
SWIDTH 480 0
DWIDTH 8 0
BBX 6 13 1 -4
BITMAP
10
10
00
00
10
10
20
C0
80
80
84
8C
78
ENDCHAR
STARTCHAR 00C0
ENCODING 192
SWIDTH 660 0
DWIDTH 11 0
BBX 11 16 0 0
BITMAP
0800
0400
0000
0000
0400
0600
0A00
0900
1100
1080
1080
3F80
2040
4040
4060
C020
ENDCHAR
STARTCHAR 00C1
ENCODING 193
SWIDTH 660 0
DWIDTH 11 0
BBX 11 16 0 0
BITMAP
0200
0600
0000
0000
0400
0600
0A00
0900
1100
1080
1080
3F80
2040
4040
4060
C020
ENDCHAR
STARTCHAR 00C2
ENCODING 194
SWIDTH 660 0
DWIDTH 11 0
BBX 11 16 0 0
BITMAP
0400
0B00
0000
0000
0400
0600
0A00
0900
1100
1080
1080
3F80
2040
4040
4060
C020
ENDCHAR
STARTCHAR 00C3
ENCODING 195
SWIDTH 660 0
DWIDTH 11 0
BBX 11 16 0 0
BITMAP
0C80
1700
0000
0000
0400
0600
0A00
0900
1100
1080
1080
3F80
2040
4040
4060
C020
ENDCHAR
STARTCHAR 00C4
ENCODING 196
SWIDTH 660 0
DWIDTH 11 0
BBX 11 15 0 0
BITMAP
0900
0000
0000
0400
0600
0A00
0900
1100
1080
1080
3F80
2040
4040
4060
C020
ENDCHAR
STARTCHAR 00C5
ENCODING 197
SWIDTH 660 0
DWIDTH 11 0
BBX 11 16 0 0
BITMAP
0600
0A00
0600
0000
0400
0600
0A00
0900
1100
1080
1080
3F80
2040
4040
4060
C020
ENDCHAR
STARTCHAR 00C6
ENCODING 198
SWIDTH 960 0
DWIDTH 16 0
BBX 16 12 0 0
BITMAP
01FF
0280
0280
0480
0C80
08FE
1080
3F80
2080
4080
4080
80FF
ENDCHAR
STARTCHAR 00C7
ENCODING 199
SWIDTH 720 0
DWIDTH 12 0
BBX 10 15 1 -3
BITMAP
1F00
2180
4040
8000
8000
8000
8000
8000
8000
4040
2180
1E00
0600
0A00
0E00
ENDCHAR
STARTCHAR 00C8
ENCODING 200
SWIDTH 600 0
DWIDTH 10 0
BBX 8 16 2 0
BITMAP
20
10
00
00
FE
80
80
80
80
FE
80
80
80
80
80
FF
ENDCHAR
STARTCHAR 00C9
ENCODING 201
SWIDTH 600 0
DWIDTH 10 0
BBX 8 16 2 0
BITMAP
08
18
00
00
FE
80
80
80
80
FE
80
80
80
80
80
FF
ENDCHAR
STARTCHAR 00CA
ENCODING 202
SWIDTH 600 0
DWIDTH 10 0
BBX 8 16 2 0
BITMAP
10
2C
00
00
FE
80
80
80
80
FE
80
80
80
80
80
FF
ENDCHAR
STARTCHAR 00CB
ENCODING 203
SWIDTH 600 0
DWIDTH 10 0
BBX 8 15 2 0
BITMAP
28
00
00
FE
80
80
80
80
FE
80
80
80
80
80
FF
ENDCHAR
STARTCHAR 00CC
ENCODING 204
SWIDTH 240 0
DWIDTH 4 0
BBX 2 16 1 0
BITMAP
80
C0
00
00
40
40
40
40
40
40
40
40
40
40
40
40
ENDCHAR
STARTCHAR 00CD
ENCODING 205
SWIDTH 240 0
DWIDTH 4 0
BBX 3 16 1 0
BITMAP
60
40
80
00
40
40
40
40
40
40
40
40
40
40
40
40
ENDCHAR
STARTCHAR 00CE
ENCODING 206
SWIDTH 240 0
DWIDTH 4 0
BBX 4 16 0 0
BITMAP
20
F0
00
00
20
20
20
20
20
20
20
20
20
20
20
20
ENDCHAR
STARTCHAR 00CF
ENCODING 207
SWIDTH 240 0
DWIDTH 4 0
BBX 4 15 0 0
BITMAP
90
00
00
20
20
20
20
20
20
20
20
20
20
20
20
ENDCHAR
STARTCHAR 00D0
ENCODING 208
SWIDTH 720 0
DWIDTH 12 0
BBX 10 12 1 0
BITMAP
7E00
4180
40C0
4040
4040
F840
4040
4040
4040
40C0
4180
7E00
ENDCHAR
STARTCHAR 00D1
ENCODING 209
SWIDTH 780 0
DWIDTH 13 0
BBX 10 16 2 0
BITMAP
1200
2E00
0000
0000
80C0
C0C0
C0C0
A0C0
B0C0
98C0
8CC0
84C0
82C0
81C0
81C0
80C0
ENDCHAR
STARTCHAR 00D2
ENCODING 210
SWIDTH 780 0
DWIDTH 13 0
BBX 11 16 1 0
BITMAP
0800
0400
0000
0000
1F00
2180
4040
C040
8020
8020
8020
8020
8060
4040
2180
1F00
ENDCHAR
STARTCHAR 00D3
ENCODING 211
SWIDTH 780 0
DWIDTH 13 0
BBX 11 16 1 0
BITMAP
0200
0400
0000
0000
1F00
2180
4040
C040
8020
8020
8020
8020
8060
4040
2180
1F00
ENDCHAR
STARTCHAR 00D4
ENCODING 212
SWIDTH 780 0
DWIDTH 13 0
BBX 11 16 1 0
BITMAP
0400
1B00
0000
0000
1F00
2180
4040
C040
8020
8020
8020
8020
8060
4040
2180
1F00
ENDCHAR
STARTCHAR 00D5
ENCODING 213
SWIDTH 780 0
DWIDTH 13 0
BBX 11 16 1 0
BITMAP
1900
1700
0000
0000
1F00
2180
4040
C040
8020
8020
8020
8020
8060
4040
2180
1F00
ENDCHAR
STARTCHAR 00D6
ENCODING 214
SWIDTH 780 0
DWIDTH 13 0
BBX 11 15 1 0
BITMAP
0A00
0000
0000
1F00
2180
4040
C040
8020
8020
8020
8020
8060
4040
2180
1F00
ENDCHAR
STARTCHAR 00D7
ENCODING 215
SWIDTH 480 0
DWIDTH 8 0
BBX 6 5 1 2
BITMAP
CC
70
30
58
8C
ENDCHAR
STARTCHAR 00D8
ENCODING 216
SWIDTH 780 0
DWIDTH 13 0
BBX 11 12 1 0
BITMAP
1FC0
2180
41C0
C340
8220
8420
8C20
8820
D060
7040
2180
5F00
ENDCHAR
STARTCHAR 00D9
ENCODING 217
SWIDTH 780 0
DWIDTH 13 0
BBX 11 16 1 0
BITMAP
0800
0400
0000
0000
C060
C060
C060
C060
C060
C060
C060
C040
4040
40C0
2180
1F00
ENDCHAR
STARTCHAR 00DA
ENCODING 218
SWIDTH 780 0
DWIDTH 13 0
BBX 11 16 1 0
BITMAP
0200
0400
0000
0000
C060
C060
C060
C060
C060
C060
C060
C040
4040
40C0
2180
1F00
ENDCHAR
STARTCHAR 00DB
ENCODING 219
SWIDTH 780 0
DWIDTH 13 0
BBX 11 16 1 0
BITMAP
0400
1B00
0000
0000
C060
C060
C060
C060
C060
C060
C060
C040
4040
40C0
2180
1F00
ENDCHAR
STARTCHAR 00DC
ENCODING 220
SWIDTH 780 0
DWIDTH 13 0
BBX 11 15 1 0
BITMAP
0A00
0000
0000
C060
C060
C060
C060
C060
C060
C060
C040
4040
40C0
2180
1F00
ENDCHAR
STARTCHAR 00DD
ENCODING 221
SWIDTH 660 0
DWIDTH 11 0
BBX 11 16 0 0
BITMAP
0200
0400
0000
0000
C060
4040
2080
3180
1100
0A00
0E00
0400
0400
0400
0400
0400
ENDCHAR
STARTCHAR 00DE
ENCODING 222
SWIDTH 600 0
DWIDTH 10 0
BBX 8 12 2 0
BITMAP
80
80
FC
86
82
81
81
83
82
FC
80
80
ENDCHAR
STARTCHAR 00DF
ENCODING 223
SWIDTH 540 0
DWIDTH 9 0
BBX 8 12 1 0
BITMAP
3C
46
C2
82
84
98
86
83
81
83
86
9C
ENDCHAR
STARTCHAR 00E0
ENCODING 224
SWIDTH 540 0
DWIDTH 9 0
BBX 7 12 1 0
BITMAP
20
10
00
7C
86
02
7E
C2
82
82
86
7A
ENDCHAR
STARTCHAR 00E1
ENCODING 225
SWIDTH 540 0
DWIDTH 9 0
BBX 7 12 1 0
BITMAP
18
10
00
7C
86
02
7E
C2
82
82
86
7A
ENDCHAR
STARTCHAR 00E2
ENCODING 226
SWIDTH 540 0
DWIDTH 9 0
BBX 7 12 1 0
BITMAP
38
4C
00
7C
86
02
7E
C2
82
82
86
7A
ENDCHAR
STARTCHAR 00E3
ENCODING 227
SWIDTH 540 0
DWIDTH 9 0
BBX 7 12 1 0
BITMAP
7C
00
00
7C
86
02
7E
C2
82
82
86
7A
ENDCHAR
STARTCHAR 00E4
ENCODING 228
SWIDTH 540 0
DWIDTH 9 0
BBX 7 12 1 0
BITMAP
28
00
00
7C
86
02
7E
C2
82
82
86
7A
ENDCHAR
STARTCHAR 00E5
ENCODING 229
SWIDTH 540 0
DWIDTH 9 0
BBX 7 12 1 0
BITMAP
38
38
00
7C
86
02
7E
C2
82
82
86
7A
ENDCHAR
STARTCHAR 00E6
ENCODING 230
SWIDTH 960 0
DWIDTH 16 0
BBX 14 9 1 0
BITMAP
78F0
8508
0204
7A04
C7FC
8200
8200
850C
78F0
ENDCHAR
STARTCHAR 00E7
ENCODING 231
SWIDTH 540 0
DWIDTH 9 0
BBX 8 12 1 -3
BITMAP
3C
43
80
80
80
80
C3
66
1C
18
04
3C
ENDCHAR
STARTCHAR 00E8
ENCODING 232
SWIDTH 600 0
DWIDTH 10 0
BBX 8 12 1 0
BITMAP
30
08
00
3C
42
81
81
FF
80
80
43
3C
ENDCHAR
STARTCHAR 00E9
ENCODING 233
SWIDTH 600 0
DWIDTH 10 0
BBX 8 12 1 0
BITMAP
0C
10
00
3C
42
81
81
FF
80
80
43
3C
ENDCHAR
STARTCHAR 00EA
ENCODING 234
SWIDTH 600 0
DWIDTH 10 0
BBX 8 12 1 0
BITMAP
18
24
00
3C
42
81
81
FF
80
80
43
3C
ENDCHAR
STARTCHAR 00EB
ENCODING 235
SWIDTH 600 0
DWIDTH 10 0
BBX 8 12 1 0
BITMAP
24
00
00
3C
42
81
81
FF
80
80
43
3C
ENDCHAR
STARTCHAR 00EC
ENCODING 236
SWIDTH 240 0
DWIDTH 4 0
BBX 3 12 0 0
BITMAP
C0
60
00
40
40
40
40
40
40
40
40
40
ENDCHAR
STARTCHAR 00ED
ENCODING 237
SWIDTH 240 0
DWIDTH 4 0
BBX 2 12 1 0
BITMAP
40
80
00
80
80
80
80
80
80
80
80
80
ENDCHAR
STARTCHAR 00EE
ENCODING 238
SWIDTH 240 0
DWIDTH 4 0
BBX 4 12 0 0
BITMAP
60
90
00
40
40
40
40
40
40
40
40
40
ENDCHAR
STARTCHAR 00EF
ENCODING 239
SWIDTH 240 0
DWIDTH 4 0
BBX 4 12 0 0
BITMAP
90
00
00
40
40
40
40
40
40
40
40
40
ENDCHAR
STARTCHAR 00F0
ENCODING 240
SWIDTH 600 0
DWIDTH 10 0
BBX 9 12 1 0
BITMAP
3A00
0C00
1200
0300
3D00
4300
8100
8180
8100
8100
4200
3C00
ENDCHAR
STARTCHAR 00F1
ENCODING 241
SWIDTH 600 0
DWIDTH 10 0
BBX 8 12 1 0
BITMAP
7E
00
00
9E
A2
C3
81
81
81
81
81
81
ENDCHAR
STARTCHAR 00F2
ENCODING 242
SWIDTH 600 0
DWIDTH 10 0
BBX 8 12 1 0
BITMAP
30
08
00
3C
42
81
81
81
81
81
42
3C
ENDCHAR
STARTCHAR 00F3
ENCODING 243
SWIDTH 600 0
DWIDTH 10 0
BBX 8 12 1 0
BITMAP
0C
10
00
3C
42
81
81
81
81
81
42
3C
ENDCHAR
STARTCHAR 00F4
ENCODING 244
SWIDTH 600 0
DWIDTH 10 0
BBX 8 12 1 0
BITMAP
18
24
00
3C
42
81
81
81
81
81
42
3C
ENDCHAR
STARTCHAR 00F5
ENCODING 245
SWIDTH 600 0
DWIDTH 10 0
BBX 8 12 1 0
BITMAP
7E
00
00
3C
42
81
81
81
81
81
42
3C
ENDCHAR
STARTCHAR 00F6
ENCODING 246
SWIDTH 600 0
DWIDTH 10 0
BBX 8 12 1 0
BITMAP
24
00
00
3C
42
81
81
81
81
81
42
3C
ENDCHAR
STARTCHAR 00F7
ENCODING 247
SWIDTH 540 0
DWIDTH 9 0
BBX 7 7 1 2
BITMAP
10
00
00
FE
00
00
10
ENDCHAR
STARTCHAR 00F8
ENCODING 248
SWIDTH 600 0
DWIDTH 10 0
BBX 8 9 1 0
BITMAP
3F
42
85
89
89
91
A1
42
7C
ENDCHAR
STARTCHAR 00F9
ENCODING 249
SWIDTH 600 0
DWIDTH 10 0
BBX 8 12 1 0
BITMAP
30
18
00
81
81
81
81
81
81
C3
45
79
ENDCHAR
STARTCHAR 00FA
ENCODING 250
SWIDTH 600 0
DWIDTH 10 0
BBX 8 12 1 0
BITMAP
0C
10
00
81
81
81
81
81
81
C3
45
79
ENDCHAR
STARTCHAR 00FB
ENCODING 251
SWIDTH 600 0
DWIDTH 10 0
BBX 8 12 1 0
BITMAP
18
24
00
81
81
81
81
81
81
C3
45
79
ENDCHAR
STARTCHAR 00FC
ENCODING 252
SWIDTH 600 0
DWIDTH 10 0
BBX 8 12 1 0
BITMAP
24
00
00
81
81
81
81
81
81
C3
45
79
ENDCHAR
STARTCHAR 00FD
ENCODING 253
SWIDTH 540 0
DWIDTH 9 0
BBX 9 16 0 -4
BITMAP
0400
0800
0000
C080
4100
4100
2300
2200
1200
1400
1400
0C00
0800
0800
1000
3000
ENDCHAR
STARTCHAR 00FE
ENCODING 254
SWIDTH 600 0
DWIDTH 10 0
BBX 9 16 1 -4
BITMAP
8000
8000
8000
9C00
A300
C100
8100
8180
8100
C100
E200
BC00
8000
8000
8000
8000
ENDCHAR
STARTCHAR 00FF
ENCODING 255
SWIDTH 540 0
DWIDTH 9 0
BBX 9 16 0 -4
BITMAP
1200
0000
0000
C080
4100
4100
2300
2200
1200
1400
1400
0C00
0800
0800
1000
3000
ENDCHAR
STARTCHAR 0100
ENCODING 256
SWIDTH 660 0
DWIDTH 11 0
BBX 11 15 0 0
BITMAP
1F00
0000
0000
0400
0600
0A00
0900
1100
1080
1080
3F80
2040
4040
4060
C020
ENDCHAR
STARTCHAR 0101
ENCODING 257
SWIDTH 540 0
DWIDTH 9 0
BBX 7 12 1 0
BITMAP
7C
00
00
7C
86
02
7E
C2
82
82
86
7A
ENDCHAR
STARTCHAR 0102
ENCODING 258
SWIDTH 660 0
DWIDTH 11 0
BBX 11 16 0 0
BITMAP
0900
0E00
0000
0000
0400
0600
0A00
0900
1100
1080
1080
3F80
2040
4040
4060
C020
ENDCHAR
STARTCHAR 0103
ENCODING 259
SWIDTH 540 0
DWIDTH 9 0
BBX 7 12 1 0
BITMAP
38
00
00
7C
86
02
7E
C2
82
82
86
7A
ENDCHAR
STARTCHAR 0104
ENCODING 260
SWIDTH 660 0
DWIDTH 11 0
BBX 11 15 0 -3
BITMAP
0400
0600
0A00
0900
1100
1080
1080
3F80
2040
4040
4060
C020
0020
0040
0060
ENDCHAR
STARTCHAR 0105
ENCODING 261
SWIDTH 540 0
DWIDTH 9 0
BBX 7 12 1 -3
BITMAP
7C
86
02
7E
C2
82
82
86
7A
02
04
02
ENDCHAR
STARTCHAR 0106
ENCODING 262
SWIDTH 720 0
DWIDTH 12 0
BBX 10 16 1 0
BITMAP
0200
0400
0000
0000
1F00
2180
4040
8000
8000
8000
8000
8000
C000
4040
2180
1F00
ENDCHAR
STARTCHAR 0107
ENCODING 263
SWIDTH 540 0
DWIDTH 9 0
BBX 8 12 1 0
BITMAP
0C
10
00
3C
43
80
80
80
80
80
43
3C
ENDCHAR
STARTCHAR 0108
ENCODING 264
SWIDTH 720 0
DWIDTH 12 0
BBX 10 16 1 0
BITMAP
0400
1A00
0100
0000
1F00
2180
4040
8000
8000
8000
8000
8000
C000
4040
2180
1F00
ENDCHAR
STARTCHAR 0109
ENCODING 265
SWIDTH 540 0
DWIDTH 9 0
BBX 8 12 1 0
BITMAP
18
24
00
3C
43
80
80
80
80
80
43
3C
ENDCHAR
STARTCHAR 010A
ENCODING 266
SWIDTH 720 0
DWIDTH 12 0
BBX 10 16 1 0
BITMAP
0400
0400
0000
0000
1F00
2180
4040
8000
8000
8000
8000
8000
C000
4040
2180
1F00
ENDCHAR
STARTCHAR 010B
ENCODING 267
SWIDTH 540 0
DWIDTH 9 0
BBX 8 12 1 0
BITMAP
08
08
00
3C
43
80
80
80
80
80
43
3C
ENDCHAR
STARTCHAR 010C
ENCODING 268
SWIDTH 720 0
DWIDTH 12 0
BBX 10 16 1 0
BITMAP
1300
0C00
0000
0000
1F00
2180
4040
8000
8000
8000
8000
8000
C000
4040
2180
1F00
ENDCHAR
STARTCHAR 010D
ENCODING 269
SWIDTH 540 0
DWIDTH 9 0
BBX 8 13 1 0
BITMAP
24
18
00
00
3C
43
80
80
80
80
80
43
3C
ENDCHAR
STARTCHAR 010E
ENCODING 270
SWIDTH 720 0
DWIDTH 12 0
BBX 9 16 2 0
BITMAP
2400
1800
0000
0000
FC00
8300
8100
8080
8080
8080
8080
8080
8080
8100
8300
FC00
ENDCHAR
STARTCHAR 010F
ENCODING 271
SWIDTH 660 0
DWIDTH 11 0
BBX 11 12 1 0
BITMAP
0160
0140
0100
3D00
4300
8100
8100
8100
8100
C100
6300
3D80
ENDCHAR
STARTCHAR 0110
ENCODING 272
SWIDTH 720 0
DWIDTH 12 0
BBX 10 12 1 0
BITMAP
7E00
4180
40C0
4040
4040
F840
4040
4040
4040
40C0
4180
7E00
ENDCHAR
STARTCHAR 0111
ENCODING 273
SWIDTH 660 0
DWIDTH 11 0
BBX 9 12 1 0
BITMAP
0780
0100
0100
3D00
4300
8100
8100
8100
8100
C100
6300
3D80
ENDCHAR
STARTCHAR 0112
ENCODING 274
SWIDTH 600 0
DWIDTH 10 0
BBX 8 15 2 0
BITMAP
7C
00
00
FE
80
80
80
80
FE
80
80
80
80
80
FF
ENDCHAR
STARTCHAR 0113
ENCODING 275
SWIDTH 600 0
DWIDTH 10 0
BBX 8 12 1 0
BITMAP
3E
00
00
3C
42
81
81
FF
80
80
43
3C
ENDCHAR
STARTCHAR 0114
ENCODING 276
SWIDTH 600 0
DWIDTH 10 0
BBX 8 16 2 0
BITMAP
24
38
00
00
FE
80
80
80
80
FE
80
80
80
80
80
FF
ENDCHAR
STARTCHAR 0115
ENCODING 277
SWIDTH 600 0
DWIDTH 10 0
BBX 8 12 1 0
BITMAP
3C
00
00
3C
42
81
81
FF
80
80
43
3C
ENDCHAR
STARTCHAR 0116
ENCODING 278
SWIDTH 600 0
DWIDTH 10 0
BBX 8 16 2 0
BITMAP
10
10
00
00
FE
80
80
80
80
FE
80
80
80
80
80
FF
ENDCHAR
STARTCHAR 0117
ENCODING 279
SWIDTH 600 0
DWIDTH 10 0
BBX 8 12 1 0
BITMAP
08
08
00
3C
42
81
81
FF
80
80
43
3C
ENDCHAR
STARTCHAR 0118
ENCODING 280
SWIDTH 600 0
DWIDTH 10 0
BBX 8 15 2 -3
BITMAP
FE
80
80
80
80
FE
80
80
80
80
80
FF
02
04
02
ENDCHAR
STARTCHAR 0119
ENCODING 281
SWIDTH 600 0
DWIDTH 10 0
BBX 8 12 1 -3
BITMAP
3C
42
81
81
FF
80
80
43
3C
10
10
10
ENDCHAR
STARTCHAR 011A
ENCODING 282
SWIDTH 600 0
DWIDTH 10 0
BBX 8 16 2 0
BITMAP
24
18
00
00
FE
80
80
80
80
FE
80
80
80
80
80
FF
ENDCHAR
STARTCHAR 011B
ENCODING 283
SWIDTH 600 0
DWIDTH 10 0
BBX 8 13 1 0
BITMAP
24
18
00
00
3C
42
81
81
FF
80
80
43
3C
ENDCHAR
STARTCHAR 011C
ENCODING 284
SWIDTH 720 0
DWIDTH 12 0
BBX 10 16 1 0
BITMAP
0400
1A00
0000
0000
1F00
2180
4040
8000
8000
8000
81C0
8040
C040
4040
21C0
1F40
ENDCHAR
STARTCHAR 011D
ENCODING 285
SWIDTH 600 0
DWIDTH 10 0
BBX 8 16 1 -4
BITMAP
1C
36
00
3D
43
81
81
81
81
81
43
3D
01
81
C2
3C
ENDCHAR
STARTCHAR 011E
ENCODING 286
SWIDTH 720 0
DWIDTH 12 0
BBX 10 16 1 0
BITMAP
1200
0E00
0000
0000
1F00
2180
4040
8000
8000
8000
81C0
8040
C040
4040
21C0
1F40
ENDCHAR
STARTCHAR 011F
ENCODING 287
SWIDTH 600 0
DWIDTH 10 0
BBX 8 16 1 -4
BITMAP
14
1C
00
3D
43
81
81
81
81
81
43
3D
01
81
C2
3C
ENDCHAR
STARTCHAR 0120
ENCODING 288
SWIDTH 720 0
DWIDTH 12 0
BBX 10 16 1 0
BITMAP
0400
0400
0000
0000
1F00
2180
4040
8000
8000
8000
81C0
8040
C040
4040
21C0
1F40
ENDCHAR
STARTCHAR 0121
ENCODING 289
SWIDTH 600 0
DWIDTH 10 0
BBX 8 16 1 -4
BITMAP
08
08
00
3D
43
81
81
81
81
81
43
3D
01
81
C2
3C
ENDCHAR
STARTCHAR 0122
ENCODING 290
SWIDTH 720 0
DWIDTH 12 0
BBX 10 16 1 -4
BITMAP
1F00
2180
40C0
8040
8000
8000
8000
81C0
C040
4040
20C0
1F40
0000
0400
0400
0400
ENDCHAR
STARTCHAR 0123
ENCODING 291
SWIDTH 600 0
DWIDTH 10 0
BBX 8 16 1 -4
BITMAP
08
08
00
3D
43
81
81
81
81
81
43
3D
01
81
C2
3C
ENDCHAR
STARTCHAR 0124
ENCODING 292
SWIDTH 780 0
DWIDTH 13 0
BBX 9 16 2 0
BITMAP
0800
3400
0000
0000
8080
8080
8080
8080
8080
FF80
8080
8080
8080
8080
8080
8080
ENDCHAR
STARTCHAR 0125
ENCODING 293
SWIDTH 600 0
DWIDTH 10 0
BBX 8 12 1 0
BITMAP
8C
92
80
9E
A2
C3
81
81
81
81
81
81
ENDCHAR
STARTCHAR 0126
ENCODING 294
SWIDTH 780 0
DWIDTH 13 0
BBX 11 12 1 0
BITMAP
4040
4040
FFE0
4040
4040
7FC0
4040
4040
4040
4040
4040
4040
ENDCHAR
STARTCHAR 0127
ENCODING 295
SWIDTH 600 0
DWIDTH 10 0
BBX 9 12 0 0
BITMAP
4000
F800
4000
4F00
5100
6180
4080
4080
4080
4080
4080
4080
ENDCHAR
STARTCHAR 0128
ENCODING 296
SWIDTH 240 0
DWIDTH 4 0
BBX 6 16 -1 0
BITMAP
64
98
00
00
10
10
10
10
10
10
10
10
10
10
10
10
ENDCHAR
STARTCHAR 0129
ENCODING 297
SWIDTH 240 0
DWIDTH 4 0
BBX 6 12 -1 0
BITMAP
FC
00
00
20
20
20
20
20
20
20
20
20
ENDCHAR
STARTCHAR 012A
ENCODING 298
SWIDTH 240 0
DWIDTH 4 0
BBX 5 15 0 0
BITMAP
F8
00
00
20
20
20
20
20
20
20
20
20
20
20
20
ENDCHAR
STARTCHAR 012B
ENCODING 299
SWIDTH 240 0
DWIDTH 4 0
BBX 5 12 -1 0
BITMAP
F8
00
00
20
20
20
20
20
20
20
20
20
ENDCHAR
STARTCHAR 012C
ENCODING 300
SWIDTH 240 0
DWIDTH 4 0
BBX 4 16 0 0
BITMAP
90
60
00
00
20
20
20
20
20
20
20
20
20
20
20
20
ENDCHAR
STARTCHAR 012D
ENCODING 301
SWIDTH 240 0
DWIDTH 4 0
BBX 4 12 0 0
BITMAP
F0
00
00
40
40
40
40
40
40
40
40
40
ENDCHAR
STARTCHAR 012E
ENCODING 302
SWIDTH 240 0
DWIDTH 4 0
BBX 2 15 1 -3
BITMAP
40
40
40
40
40
40
40
40
40
40
40
40
80
80
80
ENDCHAR
STARTCHAR 012F
ENCODING 303
SWIDTH 240 0
DWIDTH 4 0
BBX 2 15 0 -3
BITMAP
40
40
00
40
40
40
40
40
40
40
40
40
40
80
40
ENDCHAR
STARTCHAR 0130
ENCODING 304
SWIDTH 240 0
DWIDTH 4 0
BBX 1 16 2 0
BITMAP
80
80
00
00
80
80
80
80
80
80
80
80
80
80
80
80
ENDCHAR
STARTCHAR 0131
ENCODING 305
SWIDTH 240 0
DWIDTH 4 0
BBX 1 9 1 0
BITMAP
80
80
80
80
80
80
80
80
80
ENDCHAR
STARTCHAR 0132
ENCODING 306
SWIDTH 720 0
DWIDTH 12 0
BBX 9 12 2 0
BITMAP
8080
8080
8080
8080
8080
8080
8080
8080
8080
8180
A100
9E00
ENDCHAR
STARTCHAR 0133
ENCODING 307
SWIDTH 480 0
DWIDTH 8 0
BBX 5 15 1 -3
BITMAP
88
88
00
88
88
88
88
88
88
88
88
88
08
08
70
ENDCHAR
STARTCHAR 0134
ENCODING 308
SWIDTH 480 0
DWIDTH 8 0
BBX 8 16 0 0
BITMAP
06
09
00
00
02
02
02
02
02
02
02
02
06
04
84
78
ENDCHAR
STARTCHAR 0135
ENCODING 309
SWIDTH 240 0
DWIDTH 4 0
BBX 6 15 -2 -3
BITMAP
18
24
00
10
10
10
10
10
10
10
10
10
10
10
E0
ENDCHAR
STARTCHAR 0136
ENCODING 310
SWIDTH 660 0
DWIDTH 11 0
BBX 9 16 2 -4
BITMAP
8180
8200
8400
8800
9800
B000
F800
C800
8400
8200
8300
8180
0000
1000
1000
1000
ENDCHAR
STARTCHAR 0137
ENCODING 311
SWIDTH 540 0
DWIDTH 9 0
BBX 8 16 1 -4
BITMAP
80
80
80
83
84
88
90
B8
C8
84
82
83
00
10
10
10
ENDCHAR
STARTCHAR 0138
ENCODING 312
SWIDTH 540 0
DWIDTH 9 0
BBX 8 9 1 0
BITMAP
83
84
88
90
B8
C8
84
82
83
ENDCHAR
STARTCHAR 0139
ENCODING 313
SWIDTH 600 0
DWIDTH 10 0
BBX 8 16 2 0
BITMAP
08
18
00
00
80
80
80
80
80
80
80
80
80
80
80
FF
ENDCHAR
STARTCHAR 013A
ENCODING 314
SWIDTH 300 0
DWIDTH 5 0
BBX 4 15 1 0
BITMAP
40
80
00
80
80
80
80
80
80
80
80
80
80
C0
70
ENDCHAR
STARTCHAR 013B
ENCODING 315
SWIDTH 600 0
DWIDTH 10 0
BBX 8 16 2 -4
BITMAP
80
80
80
80
80
80
80
80
80
80
80
FF
00
10
10
10
ENDCHAR
STARTCHAR 013C
ENCODING 316
SWIDTH 300 0
DWIDTH 5 0
BBX 4 16 1 -4
BITMAP
80
80
80
80
80
80
80
80
80
80
C0
70
00
40
20
40
ENDCHAR
STARTCHAR 013D
ENCODING 317
SWIDTH 600 0
DWIDTH 10 0
BBX 8 12 2 0
BITMAP
8C
88
80
80
80
80
80
80
80
80
80
FF
ENDCHAR
STARTCHAR 013E
ENCODING 318
SWIDTH 300 0
DWIDTH 5 0
BBX 4 12 1 0
BITMAP
90
A0
80
80
80
80
80
80
80
80
C0
70
ENDCHAR
STARTCHAR 013F
ENCODING 319
SWIDTH 600 0
DWIDTH 10 0
BBX 8 12 2 0
BITMAP
80
80
80
80
88
88
80
80
80
80
80
FF
ENDCHAR
STARTCHAR 0140
ENCODING 320
SWIDTH 300 0
DWIDTH 5 0
BBX 4 12 1 0
BITMAP
80
80
80
80
80
90
90
80
80
80
C0
70
ENDCHAR
STARTCHAR 0141
ENCODING 321
SWIDTH 600 0
DWIDTH 10 0
BBX 10 12 0 0
BITMAP
2000
2000
2000
2400
2800
3000
6000
A000
2000
2000
2000
3FC0
ENDCHAR
STARTCHAR 0142
ENCODING 322
SWIDTH 300 0
DWIDTH 5 0
BBX 5 12 0 0
BITMAP
20
20
20
28
30
20
E0
20
20
20
20
38
ENDCHAR
STARTCHAR 0143
ENCODING 323
SWIDTH 780 0
DWIDTH 13 0
BBX 10 16 2 0
BITMAP
0400
0800
0000
0000
80C0
C0C0
C0C0
A0C0
B0C0
98C0
8CC0
84C0
82C0
81C0
81C0
80C0
ENDCHAR
STARTCHAR 0144
ENCODING 324
SWIDTH 600 0
DWIDTH 10 0
BBX 8 12 1 0
BITMAP
0C
18
00
9E
A2
C3
81
81
81
81
81
81
ENDCHAR
STARTCHAR 0145
ENCODING 325
SWIDTH 780 0
DWIDTH 13 0
BBX 10 16 2 -4
BITMAP
80C0
C0C0
C0C0
A0C0
B0C0
98C0
8CC0
84C0
82C0
81C0
81C0
80C0
0000
0800
0800
0800
ENDCHAR
STARTCHAR 0146
ENCODING 326
SWIDTH 600 0
DWIDTH 10 0
BBX 8 13 1 -4
BITMAP
9E
A2
C3
81
81
81
81
81
81
00
10
10
10
ENDCHAR
STARTCHAR 0147
ENCODING 327
SWIDTH 780 0
DWIDTH 13 0
BBX 10 16 2 0
BITMAP
1200
0C00
0000
0000
80C0
C0C0
C0C0
A0C0
B0C0
98C0
8CC0
84C0
82C0
81C0
81C0
80C0
ENDCHAR
STARTCHAR 0148
ENCODING 328
SWIDTH 600 0
DWIDTH 10 0
BBX 8 12 1 0
BITMAP
3C
08
00
9E
A2
C3
81
81
81
81
81
81
ENDCHAR
STARTCHAR 0149
ENCODING 329
SWIDTH 600 0
DWIDTH 10 0
BBX 9 12 0 0
BITMAP
4000
8000
0000
4F00
5100
6180
4080
4080
4080
4080
4080
4080
ENDCHAR
STARTCHAR 014A
ENCODING 330
SWIDTH 780 0
DWIDTH 13 0
BBX 10 15 2 -3
BITMAP
80C0
C0C0
C0C0
A0C0
B0C0
98C0
8CC0
84C0
82C0
83C0
81C0
80C0
00C0
0080
0780
ENDCHAR
STARTCHAR 014B
ENCODING 331
SWIDTH 600 0
DWIDTH 10 0
BBX 8 12 1 -3
BITMAP
9E
A2
C3
81
81
81
81
81
81
01
02
1E
ENDCHAR
STARTCHAR 014C
ENCODING 332
SWIDTH 780 0
DWIDTH 13 0
BBX 11 15 1 0
BITMAP
1F00
0000
0000
1F00
2180
4040
C040
8020
8020
8020
8020
8060
4040
2180
1F00
ENDCHAR
STARTCHAR 014D
ENCODING 333
SWIDTH 600 0
DWIDTH 10 0
BBX 8 12 1 0
BITMAP
3E
00
00
3C
42
81
81
81
81
81
42
3C
ENDCHAR
STARTCHAR 014E
ENCODING 334
SWIDTH 780 0
DWIDTH 13 0
BBX 11 16 1 0
BITMAP
0A00
0E00
0000
0000
1F00
2180
4040
C040
8020
8020
8020
8020
C060
4040
2180
1F00
ENDCHAR
STARTCHAR 014F
ENCODING 335
SWIDTH 600 0
DWIDTH 10 0
BBX 8 12 1 0
BITMAP
3C
00
00
3C
42
81
81
81
81
81
42
3C
ENDCHAR
STARTCHAR 0150
ENCODING 336
SWIDTH 780 0
DWIDTH 13 0
BBX 11 16 1 0
BITMAP
0500
0A00
0000
0000
1F00
2180
4040
C040
8020
8020
8020
8020
8060
4040
2180
1F00
ENDCHAR
STARTCHAR 0151
ENCODING 337
SWIDTH 600 0
DWIDTH 10 0
BBX 8 12 1 0
BITMAP
16
28
00
3C
42
81
81
81
81
81
42
3C
ENDCHAR
STARTCHAR 0152
ENCODING 338
SWIDTH 1200 0
DWIDTH 20 0
BBX 18 12 1 0
BITMAP
1F3FC0
21A000
406000
C06000
802000
803F80
802000
802000
806000
406000
21A000
1E3FC0
ENDCHAR
STARTCHAR 0153
ENCODING 339
SWIDTH 1080 0
DWIDTH 18 0
BBX 16 9 1 0
BITMAP
3C3C
4246
8183
8181
81FF
8180
8181
4242
3C3C
ENDCHAR
STARTCHAR 0154
ENCODING 340
SWIDTH 660 0
DWIDTH 11 0
BBX 8 16 2 0
BITMAP
08
10
00
00
FC
83
81
81
81
83
FE
84
84
82
83
81
ENDCHAR
STARTCHAR 0155
ENCODING 341
SWIDTH 360 0
DWIDTH 6 0
BBX 5 12 1 0
BITMAP
30
20
00
98
A0
C0
80
80
80
80
80
80
ENDCHAR
STARTCHAR 0156
ENCODING 342
SWIDTH 660 0
DWIDTH 11 0
BBX 8 16 2 -4
BITMAP
FC
82
81
81
81
81
82
FC
84
86
82
81
00
10
10
10
ENDCHAR
STARTCHAR 0157
ENCODING 343
SWIDTH 360 0
DWIDTH 6 0
BBX 5 13 1 -4
BITMAP
98
A0
C0
80
80
80
80
80
80
00
80
80
80
ENDCHAR
STARTCHAR 0158
ENCODING 344
SWIDTH 660 0
DWIDTH 11 0
BBX 8 16 2 0
BITMAP
4C
30
00
00
FC
83
81
81
81
83
FE
84
84
82
83
81
ENDCHAR
STARTCHAR 0159
ENCODING 345
SWIDTH 360 0
DWIDTH 6 0
BBX 5 12 1 0
BITMAP
D8
20
00
98
A0
C0
80
80
80
80
80
80
ENDCHAR
STARTCHAR 015A
ENCODING 346
SWIDTH 600 0
DWIDTH 10 0
BBX 9 16 1 0
BITMAP
0C00
0800
0000
0000
3E00
4100
8000
8000
C000
7800
0F00
0100
0180
8180
C100
3E00
ENDCHAR
STARTCHAR 015B
ENCODING 347
SWIDTH 480 0
DWIDTH 8 0
BBX 8 12 0 0
BITMAP
0C
08
00
3C
42
40
60
1C
02
01
C2
3C
ENDCHAR
STARTCHAR 015C
ENCODING 348
SWIDTH 600 0
DWIDTH 10 0
BBX 9 16 1 0
BITMAP
1800
2400
0000
0000
3E00
4100
8000
8000
C000
7800
0F00
0100
0180
8180
C100
3E00
ENDCHAR
STARTCHAR 015D
ENCODING 349
SWIDTH 480 0
DWIDTH 8 0
BBX 8 12 0 0
BITMAP
18
24
00
3C
42
40
60
1C
02
01
C2
3C
ENDCHAR
STARTCHAR 015E
ENCODING 350
SWIDTH 600 0
DWIDTH 10 0
BBX 9 15 1 -3
BITMAP
3E00
4100
8000
8000
C000
7800
0F00
0100
0180
8180
C100
7E00
0C00
1400
1C00
ENDCHAR
STARTCHAR 015F
ENCODING 351
SWIDTH 480 0
DWIDTH 8 0
BBX 8 12 0 -3
BITMAP
3C
62
40
60
1C
02
01
C2
3E
18
04
1C
ENDCHAR
STARTCHAR 0160
ENCODING 352
SWIDTH 600 0
DWIDTH 10 0
BBX 9 16 1 0
BITMAP
2400
1800
0000
0000
3E00
4100
8000
8000
C000
7800
0F00
0100
0180
8180
C100
3E00
ENDCHAR
STARTCHAR 0161
ENCODING 353
SWIDTH 480 0
DWIDTH 8 0
BBX 8 13 0 0
BITMAP
24
18
00
00
3C
42
40
60
1C
02
01
C2
3C
ENDCHAR
STARTCHAR 0162
ENCODING 354
SWIDTH 600 0
DWIDTH 10 0
BBX 10 15 0 -3
BITMAP
FFC0
0400
0400
0400
0400
0400
0400
0400
0400
0400
0400
0400
0E00
0200
0E00
ENDCHAR
STARTCHAR 0163
ENCODING 355
SWIDTH 360 0
DWIDTH 6 0
BBX 6 15 0 -3
BITMAP
20
20
20
F8
20
20
20
20
20
20
28
1C
38
08
38
ENDCHAR
STARTCHAR 0164
ENCODING 356
SWIDTH 600 0
DWIDTH 10 0
BBX 10 16 0 0
BITMAP
1200
0C00
0000
0000
FFC0
0400
0400
0400
0400
0400
0400
0400
0400
0400
0400
0400
ENDCHAR
STARTCHAR 0165
ENCODING 357
SWIDTH 360 0
DWIDTH 6 0
BBX 6 12 0 0
BITMAP
2C
20
20
F8
20
20
20
20
20
20
20
3C
ENDCHAR
STARTCHAR 0166
ENCODING 358
SWIDTH 660 0
DWIDTH 11 0
BBX 9 12 1 0
BITMAP
FF80
0800
0800
0800
0800
FF80
0800
0800
0800
0800
0800
0800
ENDCHAR
STARTCHAR 0167
ENCODING 359
SWIDTH 360 0
DWIDTH 6 0
BBX 6 12 0 0
BITMAP
20
20
20
F8
20
20
F8
20
20
20
20
3C
ENDCHAR
STARTCHAR 0168
ENCODING 360
SWIDTH 780 0
DWIDTH 13 0
BBX 11 16 1 0
BITMAP
1900
1700
0000
0000
C060
C060
C060
C060
C060
C060
C060
C040
4040
40C0
2180
1F00
ENDCHAR
STARTCHAR 0169
ENCODING 361
SWIDTH 600 0
DWIDTH 10 0
BBX 8 12 1 0
BITMAP
7E
00
00
81
81
81
81
81
81
C3
45
79
ENDCHAR
STARTCHAR 016A
ENCODING 362
SWIDTH 780 0
DWIDTH 13 0
BBX 11 15 1 0
BITMAP
1F00
0000
0000
C060
C060
C060
C060
C060
C060
C060
C040
4040
40C0
2180
1F00
ENDCHAR
STARTCHAR 016B
ENCODING 363
SWIDTH 600 0
DWIDTH 10 0
BBX 8 12 1 0
BITMAP
7C
00
00
81
81
81
81
81
81
C3
45
79
ENDCHAR
STARTCHAR 016C
ENCODING 364
SWIDTH 780 0
DWIDTH 13 0
BBX 11 16 1 0
BITMAP
0A00
0E00
0000
0000
C060
C060
C060
C060
C060
C060
C060
C040
4040
40C0
2180
1F00
ENDCHAR
STARTCHAR 016D
ENCODING 365
SWIDTH 600 0
DWIDTH 10 0
BBX 8 12 1 0
BITMAP
3C
00
00
81
81
81
81
81
81
C3
45
79
ENDCHAR
STARTCHAR 016E
ENCODING 366
SWIDTH 780 0
DWIDTH 13 0
BBX 11 16 1 0
BITMAP
0400
0A00
0C00
0000
C060
C060
C060
C060
C060
C060
C060
C040
4040
40C0
2180
1F00
ENDCHAR
STARTCHAR 016F
ENCODING 367
SWIDTH 600 0
DWIDTH 10 0
BBX 8 12 1 0
BITMAP
18
18
00
81
81
81
81
81
81
C3
45
79
ENDCHAR
STARTCHAR 0170
ENCODING 368
SWIDTH 780 0
DWIDTH 13 0
BBX 11 16 1 0
BITMAP
0500
0A00
0000
0000
C060
C060
C060
C060
C060
C060
C060
C040
4040
40C0
2180
1F00
ENDCHAR
STARTCHAR 0171
ENCODING 369
SWIDTH 600 0
DWIDTH 10 0
BBX 8 12 1 0
BITMAP
14
28
00
81
81
81
81
81
81
C3
45
79
ENDCHAR
STARTCHAR 0172
ENCODING 370
SWIDTH 780 0
DWIDTH 13 0
BBX 11 15 1 -3
BITMAP
C060
C060
C060
C060
C060
C060
C060
C040
4040
40C0
2180
1F00
0800
0800
0800
ENDCHAR
STARTCHAR 0173
ENCODING 371
SWIDTH 600 0
DWIDTH 10 0
BBX 8 12 1 -3
BITMAP
81
81
81
81
81
81
C3
45
79
02
02
01
ENDCHAR
STARTCHAR 0174
ENCODING 372
SWIDTH 1080 0
DWIDTH 18 0
BBX 18 16 0 0
BITMAP
008000
016000
000000
000000
C230C0
412080
612180
21C100
20C300
10C200
10C200
192400
092400
0A2C00
061800
061800
ENDCHAR
STARTCHAR 0175
ENCODING 373
SWIDTH 840 0
DWIDTH 14 0
BBX 14 12 0 0
BITMAP
0300
0480
0000
C48C
4508
4318
2310
2310
1520
14A0
14C0
0840
ENDCHAR
STARTCHAR 0176
ENCODING 374
SWIDTH 660 0
DWIDTH 11 0
BBX 11 16 0 0
BITMAP
0400
1B00
0000
0000
C060
4040
2080
3180
1100
0A00
0E00
0400
0400
0400
0400
0400
ENDCHAR
STARTCHAR 0177
ENCODING 375
SWIDTH 540 0
DWIDTH 9 0
BBX 9 16 0 -4
BITMAP
0C00
1200
0000
C080
4100
4100
2300
2200
1200
1400
1400
0C00
0800
0800
1000
3000
ENDCHAR
STARTCHAR 0178
ENCODING 376
SWIDTH 660 0
DWIDTH 11 0
BBX 11 15 0 0
BITMAP
0A00
0000
0000
C060
4040
2080
3180
1100
0A00
0E00
0400
0400
0400
0400
0400
ENDCHAR
STARTCHAR 0179
ENCODING 377
SWIDTH 660 0
DWIDTH 11 0
BBX 9 16 1 0
BITMAP
0400
0800
0000
0000
FF80
0180
0100
0200
0400
0800
1800
3000
2000
4000
8000
FF80
ENDCHAR
STARTCHAR 017A
ENCODING 378
SWIDTH 480 0
DWIDTH 8 0
BBX 7 12 1 0
BITMAP
18
10
00
FE
04
08
18
10
20
40
80
FE
ENDCHAR
STARTCHAR 017B
ENCODING 379
SWIDTH 660 0
DWIDTH 11 0
BBX 9 16 1 0
BITMAP
0800
0800
0000
0000
FF80
0180
0100
0200
0400
0800
1800
3000
2000
4000
8000
FF80
ENDCHAR
STARTCHAR 017C
ENCODING 380
SWIDTH 480 0
DWIDTH 8 0
BBX 7 12 1 0
BITMAP
10
10
00
FE
04
08
18
10
20
40
80
FE
ENDCHAR
STARTCHAR 017D
ENCODING 381
SWIDTH 660 0
DWIDTH 11 0
BBX 9 16 1 0
BITMAP
1200
0C00
0000
0000
FF80
0180
0100
0200
0400
0800
1800
3000
2000
4000
8000
FF80
ENDCHAR
STARTCHAR 017E
ENCODING 382
SWIDTH 480 0
DWIDTH 8 0
BBX 7 12 1 0
BITMAP
68
10
00
FE
04
08
18
10
20
40
80
FE
ENDCHAR
STARTCHAR 018F
ENCODING 399
SWIDTH 780 0
DWIDTH 13 0
BBX 12 12 0 0
BITMAP
0F00
30C0
6060
0020
0030
FFF0
4010
4030
4020
2060
30C0
0F00
ENDCHAR
STARTCHAR 0192
ENCODING 402
SWIDTH 540 0
DWIDTH 9 0
BBX 7 16 1 -4
BITMAP
0E
18
10
10
10
3E
10
10
10
10
10
10
10
10
10
E0
ENDCHAR
STARTCHAR 01C4
ENCODING 452
SWIDTH 1380 0
DWIDTH 23 0
BBX 20 16 2 0
BITMAP
000240
000180
000000
000000
FC1FF0
830030
810020
808040
808080
808180
808300
808200
808400
810800
831800
FC1FF0
ENDCHAR
STARTCHAR 01C5
ENCODING 453
SWIDTH 1260 0
DWIDTH 21 0
BBX 18 12 2 0
BITMAP
FC0D80
830200
810000
809FC0
808080
808180
808100
808200
808400
810800
831000
FC1FC0
ENDCHAR
STARTCHAR 01C6
ENCODING 454
SWIDTH 1140 0
DWIDTH 19 0
BBX 17 12 1 0
BITMAP
010B00
010400
010000
3D3F80
430080
810100
810200
810400
810C00
810800
431000
3DBF80
ENDCHAR
STARTCHAR 01C7
ENCODING 455
SWIDTH 1080 0
DWIDTH 18 0
BBX 15 12 2 0
BITMAP
8002
8002
8002
8002
8002
8002
8002
8006
8006
8004
808C
FF78
ENDCHAR
STARTCHAR 01C8
ENCODING 456
SWIDTH 840 0
DWIDTH 14 0
BBX 10 15 2 -3
BITMAP
8040
8040
8000
8040
8040
8040
8040
8040
8040
8040
8040
FF40
0040
0040
0380
ENDCHAR
STARTCHAR 01C9
ENCODING 457
SWIDTH 480 0
DWIDTH 8 0
BBX 6 15 1 -3
BITMAP
84
84
80
84
84
84
84
84
84
84
C4
74
04
04
38
ENDCHAR
STARTCHAR 01CA
ENCODING 458
SWIDTH 1260 0
DWIDTH 21 0
BBX 18 12 2 0
BITMAP
80C040
C0C040
C0C040
A0C040
90C040
98C040
8CC040
86C040
82C040
81C0C0
81D080
80CF00
ENDCHAR
STARTCHAR 01CB
ENCODING 459
SWIDTH 1020 0
DWIDTH 17 0
BBX 14 15 2 -3
BITMAP
80C4
C0C4
C0C0
A0C4
B0C4
98C4
8CC4
84C4
82C4
81C4
81C4
80C4
0004
0008
0078
ENDCHAR
STARTCHAR 01CC
ENCODING 460
SWIDTH 840 0
DWIDTH 14 0
BBX 11 15 1 -3
BITMAP
0020
0020
0000
9E20
A220
C320
8120
8120
8120
8120
8120
8120
0020
0020
01C0
ENDCHAR
STARTCHAR 01EA
ENCODING 490
SWIDTH 780 0
DWIDTH 13 0
BBX 11 15 1 -3
BITMAP
1F00
2180
4040
C040
8020
8020
8020
8020
8060
4040
2180
1F00
0800
0800
0800
ENDCHAR
STARTCHAR 01EB
ENCODING 491
SWIDTH 600 0
DWIDTH 10 0
BBX 8 12 1 -3
BITMAP
3C
42
81
81
81
81
81
42
3C
10
20
10
ENDCHAR
STARTCHAR 01F1
ENCODING 497
SWIDTH 1380 0
DWIDTH 23 0
BBX 20 12 2 0
BITMAP
FC1FF0
830030
810060
808040
808080
808100
808300
808600
808400
810800
831000
FC3FF0
ENDCHAR
STARTCHAR 01F2
ENCODING 498
SWIDTH 1260 0
DWIDTH 21 0
BBX 18 12 2 0
BITMAP
FC0000
830000
810000
809FC0
808080
808180
808100
808200
808400
810800
831000
FC1FC0
ENDCHAR
STARTCHAR 01F3
ENCODING 499
SWIDTH 1140 0
DWIDTH 19 0
BBX 17 12 1 0
BITMAP
010000
010000
010000
3D3F80
430080
810100
810200
810400
810C00
810800
431000
3DBF80
ENDCHAR
STARTCHAR 01F4
ENCODING 500
SWIDTH 720 0
DWIDTH 12 0
BBX 10 16 1 0
BITMAP
0200
0400
0000
0000
1F00
2180
4040
8000
8000
8000
81C0
8040
C040
4040
21C0
1F40
ENDCHAR
STARTCHAR 01F5
ENCODING 501
SWIDTH 600 0
DWIDTH 10 0
BBX 8 16 1 -4
BITMAP
0C
08
00
3D
43
81
81
81
81
81
43
3D
01
81
C2
3C
ENDCHAR
STARTCHAR 01FA
ENCODING 506
SWIDTH 660 0
DWIDTH 11 0
BBX 11 16 0 0
BITMAP
0200
0200
0600
0A00
0600
0600
0A00
0900
1100
1080
3080
3F80
2040
4040
4060
C020
ENDCHAR
STARTCHAR 01FB
ENCODING 507
SWIDTH 540 0
DWIDTH 9 0
BBX 7 15 1 0
BITMAP
08
10
00
38
38
00
7C
86
02
7E
C2
82
82
86
7A
ENDCHAR
STARTCHAR 01FC
ENCODING 508
SWIDTH 960 0
DWIDTH 16 0
BBX 16 16 0 0
BITMAP
0040
0080
0000
0000
01FF
0280
0280
0480
0C80
08FE
1080
3F80
2080
4080
4080
80FF
ENDCHAR
STARTCHAR 01FD
ENCODING 509
SWIDTH 960 0
DWIDTH 16 0
BBX 14 12 1 0
BITMAP
0100
0200
0000
78F0
8508
0204
7A04
C7FC
8200
820C
8508
78F0
ENDCHAR
STARTCHAR 01FE
ENCODING 510
SWIDTH 780 0
DWIDTH 13 0
BBX 11 16 1 0
BITMAP
0200
0400
0000
0000
1FC0
2180
41C0
C340
8220
8420
8C20
8820
D060
7040
2180
5F00
ENDCHAR
STARTCHAR 01FF
ENCODING 511
SWIDTH 600 0
DWIDTH 10 0
BBX 8 12 1 0
BITMAP
0C
10
00
3F
42
85
89
89
91
A1
42
7C
ENDCHAR
STARTCHAR 0200
ENCODING 512
SWIDTH 660 0
DWIDTH 11 0
BBX 11 16 0 0
BITMAP
1400
0A00
0000
0000
0400
0600
0A00
0900
1100
1080
1080
3F80
2040
4040
4060
C020
ENDCHAR
STARTCHAR 0201
ENCODING 513
SWIDTH 540 0
DWIDTH 9 0
BBX 7 12 1 0
BITMAP
78
28
00
7C
86
02
7E
C2
82
82
86
7A
ENDCHAR
STARTCHAR 0202
ENCODING 514
SWIDTH 660 0
DWIDTH 11 0
BBX 11 16 0 0
BITMAP
0600
0A00
0000
0000
0400
0600
0A00
0900
1100
1080
1080
3F80
2040
4040
4060
C020
ENDCHAR
STARTCHAR 0203
ENCODING 515
SWIDTH 540 0
DWIDTH 9 0
BBX 7 12 1 0
BITMAP
38
28
00
7C
86
02
7E
C2
82
82
86
7A
ENDCHAR
STARTCHAR 0204
ENCODING 516
SWIDTH 600 0
DWIDTH 10 0
BBX 8 16 2 0
BITMAP
50
28
00
00
FE
80
80
80
80
FE
80
80
80
80
80
FF
ENDCHAR
STARTCHAR 0205
ENCODING 517
SWIDTH 600 0
DWIDTH 10 0
BBX 8 12 1 0
BITMAP
68
14
00
3C
42
81
81
FF
80
80
43
3C
ENDCHAR
STARTCHAR 0206
ENCODING 518
SWIDTH 600 0
DWIDTH 10 0
BBX 8 16 2 0
BITMAP
18
28
00
00
FE
80
80
80
80
FE
80
80
80
80
80
FF
ENDCHAR
STARTCHAR 0207
ENCODING 519
SWIDTH 600 0
DWIDTH 10 0
BBX 8 12 1 0
BITMAP
18
24
00
3C
42
81
81
FF
80
80
43
3C
ENDCHAR
STARTCHAR 0208
ENCODING 520
SWIDTH 240 0
DWIDTH 4 0
BBX 4 16 0 0
BITMAP
A0
F0
00
00
20
20
20
20
20
20
20
20
20
20
20
20
ENDCHAR
STARTCHAR 0209
ENCODING 521
SWIDTH 240 0
DWIDTH 4 0
BBX 5 12 -1 0
BITMAP
D0
48
00
20
20
20
20
20
20
20
20
20
ENDCHAR
STARTCHAR 020A
ENCODING 522
SWIDTH 240 0
DWIDTH 4 0
BBX 4 16 0 0
BITMAP
60
90
00
00
20
20
20
20
20
20
20
20
20
20
20
20
ENDCHAR
STARTCHAR 020B
ENCODING 523
SWIDTH 240 0
DWIDTH 4 0
BBX 4 12 0 0
BITMAP
60
90
00
40
40
40
40
40
40
40
40
40
ENDCHAR
STARTCHAR 020C
ENCODING 524
SWIDTH 780 0
DWIDTH 13 0
BBX 11 16 1 0
BITMAP
1400
1A00
0000
0000
1F00
2180
4040
C040
8020
8020
8020
8020
8060
4040
2180
1F00
ENDCHAR
STARTCHAR 020D
ENCODING 525
SWIDTH 600 0
DWIDTH 10 0
BBX 8 12 1 0
BITMAP
68
14
00
3C
42
81
81
81
81
81
42
3C
ENDCHAR
STARTCHAR 020E
ENCODING 526
SWIDTH 780 0
DWIDTH 13 0
BBX 11 16 1 0
BITMAP
0C00
0A00
0000
0000
1F00
2180
4040
C040
8020
8020
8020
8020
8060
4040
2180
1F00
ENDCHAR
STARTCHAR 020F
ENCODING 527
SWIDTH 600 0
DWIDTH 10 0
BBX 8 12 1 0
BITMAP
18
24
00
3C
42
81
81
81
81
81
42
3C
ENDCHAR
STARTCHAR 0210
ENCODING 528
SWIDTH 660 0
DWIDTH 11 0
BBX 8 16 2 0
BITMAP
50
28
00
00
FC
83
81
81
81
83
FE
84
84
82
83
81
ENDCHAR
STARTCHAR 0211
ENCODING 529
SWIDTH 360 0
DWIDTH 6 0
BBX 5 12 1 0
BITMAP
B0
50
00
98
A0
C0
80
80
80
80
80
80
ENDCHAR
STARTCHAR 0212
ENCODING 530
SWIDTH 660 0
DWIDTH 11 0
BBX 8 16 2 0
BITMAP
30
28
00
00
FC
83
81
81
81
83
FE
84
84
82
83
81
ENDCHAR
STARTCHAR 0213
ENCODING 531
SWIDTH 360 0
DWIDTH 6 0
BBX 5 12 1 0
BITMAP
70
50
00
98
A0
C0
80
80
80
80
80
80
ENDCHAR
STARTCHAR 0214
ENCODING 532
SWIDTH 780 0
DWIDTH 13 0
BBX 11 16 1 0
BITMAP
1400
0A00
0000
0000
C060
C060
C060
C060
C060
C060
C060
C040
4040
40C0
2180
1F00
ENDCHAR
STARTCHAR 0215
ENCODING 533
SWIDTH 600 0
DWIDTH 10 0
BBX 8 12 1 0
BITMAP
78
2C
00
81
81
81
81
81
81
C3
45
79
ENDCHAR
STARTCHAR 0216
ENCODING 534
SWIDTH 780 0
DWIDTH 13 0
BBX 11 16 1 0
BITMAP
0C00
0A00
0000
0000
C060
C060
C060
C060
C060
C060
C060
C040
4040
40C0
2180
1F00
ENDCHAR
STARTCHAR 0217
ENCODING 535
SWIDTH 600 0
DWIDTH 10 0
BBX 8 12 1 0
BITMAP
18
24
00
81
81
81
81
81
81
C3
45
79
ENDCHAR
STARTCHAR 0218
ENCODING 536
SWIDTH 600 0
DWIDTH 10 0
BBX 9 16 1 -4
BITMAP
3E00
4100
8000
8000
C000
7800
0F00
0100
0180
8180
C100
3E00
0000
0800
0800
0800
ENDCHAR
STARTCHAR 0219
ENCODING 537
SWIDTH 480 0
DWIDTH 8 0
BBX 8 13 0 -4
BITMAP
3C
42
40
60
1C
02
01
C2
3C
00
08
08
08
ENDCHAR
STARTCHAR 021A
ENCODING 538
SWIDTH 600 0
DWIDTH 10 0
BBX 10 16 0 -4
BITMAP
FFC0
0400
0400
0400
0400
0400
0400
0400
0400
0400
0400
0400
0000
0400
0400
0400
ENDCHAR
STARTCHAR 021B
ENCODING 539
SWIDTH 360 0
DWIDTH 6 0
BBX 6 16 0 -4
BITMAP
20
20
20
F8
20
20
20
20
20
20
20
3C
00
10
10
10
ENDCHAR
STARTCHAR 0237
ENCODING 567
SWIDTH 240 0
DWIDTH 4 0
BBX 4 12 -2 -3
BITMAP
10
10
10
10
10
10
10
10
10
10
10
E0
ENDCHAR
STARTCHAR 0259
ENCODING 601
SWIDTH 600 0
DWIDTH 10 0
BBX 9 9 0 0
BITMAP
1E00
6100
2080
0080
FF80
4080
4080
2100
1E00
ENDCHAR
STARTCHAR 02BC
ENCODING 700
SWIDTH 540 0
DWIDTH 9 0
BBX 2 2 4 10
BITMAP
C0
80
ENDCHAR
STARTCHAR 02C6
ENCODING 710
SWIDTH 360 0
DWIDTH 6 0
BBX 4 2 1 10
BITMAP
60
90
ENDCHAR
STARTCHAR 02C7
ENCODING 711
SWIDTH 360 0
DWIDTH 6 0
BBX 4 2 1 11
BITMAP
90
60
ENDCHAR
STARTCHAR 02C9
ENCODING 713
SWIDTH 420 0
DWIDTH 7 0
BBX 5 1 1 11
BITMAP
F8
ENDCHAR
STARTCHAR 02D8
ENCODING 728
SWIDTH 300 0
DWIDTH 5 0
BBX 3 2 1 10
BITMAP
A0
E0
ENDCHAR
STARTCHAR 02D9
ENCODING 729
SWIDTH 180 0
DWIDTH 3 0
BBX 1 2 1 10
BITMAP
80
80
ENDCHAR
STARTCHAR 02DA
ENCODING 730
SWIDTH 240 0
DWIDTH 4 0
BBX 2 3 1 9
BITMAP
C0
C0
C0
ENDCHAR
STARTCHAR 02DB
ENCODING 731
SWIDTH 240 0
DWIDTH 4 0
BBX 2 3 1 -3
BITMAP
C0
80
C0
ENDCHAR
STARTCHAR 02DC
ENCODING 732
SWIDTH 420 0
DWIDTH 7 0
BBX 5 2 1 10
BITMAP
C8
B8
ENDCHAR
STARTCHAR 02DD
ENCODING 733
SWIDTH 360 0
DWIDTH 6 0
BBX 4 2 1 10
BITMAP
D0
A0
ENDCHAR
STARTCHAR 030F
ENCODING 783
SWIDTH 360 0
DWIDTH 6 0
BBX 4 2 1 10
BITMAP
A0
50
ENDCHAR
STARTCHAR 0311
ENCODING 785
SWIDTH 300 0
DWIDTH 5 0
BBX 3 2 1 10
BITMAP
E0
A0
ENDCHAR
STARTCHAR 0394
ENCODING 916
SWIDTH 660 0
DWIDTH 11 0
BBX 11 12 0 0
BITMAP
0400
0E00
0A00
0A00
1100
1100
2080
2080
60C0
4040
4040
FFE0
ENDCHAR
STARTCHAR 03A9
ENCODING 937
SWIDTH 780 0
DWIDTH 13 0
BBX 11 12 1 0
BITMAP
1F00
3180
4040
C060
8020
8020
8020
8020
4040
4040
3180
FBE0
ENDCHAR
STARTCHAR 03BC
ENCODING 956
SWIDTH 600 0
DWIDTH 10 0
BBX 8 13 1 -4
BITMAP
81
81
81
81
81
81
C3
C5
B9
80
80
80
80
ENDCHAR
STARTCHAR 03C0
ENCODING 960
SWIDTH 600 0
DWIDTH 10 0
BBX 10 9 0 0
BITMAP
FF80
2200
2200
2200
2200
2200
2200
2300
21C0
ENDCHAR
STARTCHAR 0400
ENCODING 1024
SWIDTH 600 0
DWIDTH 10 0
BBX 8 16 2 0
BITMAP
20
10
00
00
FE
80
80
80
80
FE
80
80
80
80
80
FF
ENDCHAR
STARTCHAR 0401
ENCODING 1025
SWIDTH 600 0
DWIDTH 10 0
BBX 8 15 2 0
BITMAP
24
00
00
FE
80
80
80
80
FE
80
80
80
80
80
FF
ENDCHAR
STARTCHAR 0402
ENCODING 1026
SWIDTH 720 0
DWIDTH 12 0
BBX 11 12 0 0
BITMAP
FF80
1800
1800
1800
1BC0
1C60
1820
1820
1820
1820
1860
1BC0
ENDCHAR
STARTCHAR 0403
ENCODING 1027
SWIDTH 540 0
DWIDTH 9 0
BBX 7 16 2 0
BITMAP
18
10
20
00
FE
80
80
80
80
80
80
80
80
80
80
80
ENDCHAR
STARTCHAR 0404
ENCODING 1028
SWIDTH 720 0
DWIDTH 12 0
BBX 10 12 1 0
BITMAP
1F00
2080
4040
8000
8000
FE00
8000
8000
C000
4040
3080
1F00
ENDCHAR
STARTCHAR 0405
ENCODING 1029
SWIDTH 600 0
DWIDTH 10 0
BBX 9 12 1 0
BITMAP
3E00
4100
8000
8000
C000
7800
0F00
0100
0180
8180
C100
3E00
ENDCHAR
STARTCHAR 0406
ENCODING 1030
SWIDTH 240 0
DWIDTH 4 0
BBX 1 12 2 0
BITMAP
80
80
80
80
80
80
80
80
80
80
80
80
ENDCHAR
STARTCHAR 0407
ENCODING 1031
SWIDTH 240 0
DWIDTH 4 0
BBX 4 15 0 0
BITMAP
90
00
00
20
20
20
20
20
20
20
20
20
20
20
20
ENDCHAR
STARTCHAR 0408
ENCODING 1032
SWIDTH 480 0
DWIDTH 8 0
BBX 7 12 0 0
BITMAP
02
02
02
02
02
02
02
02
06
04
84
78
ENDCHAR
STARTCHAR 0409
ENCODING 1033
SWIDTH 1020 0
DWIDTH 17 0
BBX 16 12 0 0
BITMAP
1F80
1080
1080
1080
1080
10FE
1083
1081
2081
2081
6083
C0FE
ENDCHAR
STARTCHAR 040A
ENCODING 1034
SWIDTH 1080 0
DWIDTH 18 0
BBX 15 12 2 0
BITMAP
8100
8100
8100
8100
8100
FFFC
8106
8102
8102
8102
8106
81FC
ENDCHAR
STARTCHAR 040B
ENCODING 1035
SWIDTH 720 0
DWIDTH 12 0
BBX 11 12 0 0
BITMAP
FF80
1800
1800
1800
1BC0
1C60
1820
1820
1820
1820
1820
1820
ENDCHAR
STARTCHAR 040C
ENCODING 1036
SWIDTH 600 0
DWIDTH 10 0
BBX 8 16 2 0
BITMAP
08
10
00
00
83
86
84
88
90
F0
90
88
8C
84
82
81
ENDCHAR
STARTCHAR 040D
ENCODING 1037
SWIDTH 720 0
DWIDTH 12 0
BBX 9 16 2 0
BITMAP
1000
0800
0000
0000
8080
8180
8380
8280
8480
8880
9880
9080
A080
C080
C080
8080
ENDCHAR
STARTCHAR 040E
ENCODING 1038
SWIDTH 660 0
DWIDTH 11 0
BBX 10 16 0 0
BITMAP
1100
1E00
0000
0000
C040
40C0
2080
2180
1100
1300
0A00
0E00
0400
0400
0800
3000
ENDCHAR
STARTCHAR 040F
ENCODING 1039
SWIDTH 720 0
DWIDTH 12 0
BBX 8 15 2 -3
BITMAP
81
81
81
81
81
81
81
81
81
81
81
FF
10
10
10
ENDCHAR
STARTCHAR 0410
ENCODING 1040
SWIDTH 660 0
DWIDTH 11 0
BBX 11 12 0 0
BITMAP
0400
0600
0A00
0900
1100
1080
1080
3F80
2040
4040
4060
C020
ENDCHAR
STARTCHAR 0411
ENCODING 1041
SWIDTH 660 0
DWIDTH 11 0
BBX 8 12 2 0
BITMAP
FF
80
80
80
80
FE
83
81
81
81
83
FE
ENDCHAR
STARTCHAR 0412
ENCODING 1042
SWIDTH 660 0
DWIDTH 11 0
BBX 9 12 1 0
BITMAP
FF00
8180
8080
8080
8100
FE00
8180
8080
8080
8080
8180
FF00
ENDCHAR
STARTCHAR 0413
ENCODING 1043
SWIDTH 540 0
DWIDTH 9 0
BBX 7 12 2 0
BITMAP
FE
80
80
80
80
80
80
80
80
80
80
80
ENDCHAR
STARTCHAR 0414
ENCODING 1044
SWIDTH 720 0
DWIDTH 12 0
BBX 12 15 0 -3
BITMAP
0FC0
1840
1840
1040
1040
1040
1040
1040
1040
2040
2040
FFF0
8010
8010
8010
ENDCHAR
STARTCHAR 0415
ENCODING 1045
SWIDTH 600 0
DWIDTH 10 0
BBX 8 12 2 0
BITMAP
FE
80
80
80
80
FE
80
80
80
80
80
FF
ENDCHAR
STARTCHAR 0416
ENCODING 1046
SWIDTH 960 0
DWIDTH 16 0
BBX 16 12 0 0
BITMAP
C183
6186
2184
1188
1998
0FF0
1998
1188
3184
2184
4182
C183
ENDCHAR
STARTCHAR 0417
ENCODING 1047
SWIDTH 540 0
DWIDTH 9 0
BBX 8 12 0 0
BITMAP
3C
42
03
03
02
1C
02
01
01
01
C2
3C
ENDCHAR
STARTCHAR 0418
ENCODING 1048
SWIDTH 780 0
DWIDTH 13 0
BBX 9 12 2 0
BITMAP
8080
8180
8380
8280
8480
8880
9880
9080
A080
C080
C080
8080
ENDCHAR
STARTCHAR 0419
ENCODING 1049
SWIDTH 780 0
DWIDTH 13 0
BBX 9 16 2 0
BITMAP
2200
3E00
0000
0000
8080
8180
8380
8280
8480
8880
9880
9080
A080
C080
C080
8080
ENDCHAR
STARTCHAR 041A
ENCODING 1050
SWIDTH 600 0
DWIDTH 10 0
BBX 8 12 2 0
BITMAP
83
86
84
88
90
F0
90
88
8C
84
82
81
ENDCHAR
STARTCHAR 041B
ENCODING 1051
SWIDTH 660 0
DWIDTH 11 0
BBX 9 12 0 0
BITMAP
1F80
1080
1080
1080
1080
1080
1080
1080
2080
2080
6080
C080
ENDCHAR
STARTCHAR 041C
ENCODING 1052
SWIDTH 900 0
DWIDTH 15 0
BBX 11 12 2 0
BITMAP
8020
C060
C060
E0A0
A0A0
9120
9320
8A20
8E20
8420
8020
8020
ENDCHAR
STARTCHAR 041D
ENCODING 1053
SWIDTH 780 0
DWIDTH 13 0
BBX 9 12 2 0
BITMAP
8080
8080
8080
8080
8080
FF80
8080
8080
8080
8080
8080
8080
ENDCHAR
STARTCHAR 041E
ENCODING 1054
SWIDTH 780 0
DWIDTH 13 0
BBX 11 12 1 0
BITMAP
1F00
2180
4040
C060
8020
8020
8020
8020
C060
4040
2180
1F00
ENDCHAR
STARTCHAR 041F
ENCODING 1055
SWIDTH 720 0
DWIDTH 12 0
BBX 9 12 2 0
BITMAP
FF80
8080
8080
8080
8080
8080
8080
8080
8080
8080
8080
8080
ENDCHAR
STARTCHAR 0420
ENCODING 1056
SWIDTH 660 0
DWIDTH 11 0
BBX 8 12 2 0
BITMAP
FC
82
81
81
81
83
FE
80
80
80
80
80
ENDCHAR
STARTCHAR 0421
ENCODING 1057
SWIDTH 720 0
DWIDTH 12 0
BBX 10 12 1 0
BITMAP
1F00
2180
4040
8000
8000
8000
8000
8000
C000
4040
2180
1F00
ENDCHAR
STARTCHAR 0422
ENCODING 1058
SWIDTH 600 0
DWIDTH 10 0
BBX 10 12 0 0
BITMAP
FFC0
0400
0400
0400
0400
0400
0400
0400
0400
0400
0400
0400
ENDCHAR
STARTCHAR 0423
ENCODING 1059
SWIDTH 660 0
DWIDTH 11 0
BBX 10 12 0 0
BITMAP
C040
40C0
2080
2180
1100
1300
0A00
0E00
0400
0400
0800
3000
ENDCHAR
STARTCHAR 0424
ENCODING 1060
SWIDTH 780 0
DWIDTH 13 0
BBX 11 14 1 -1
BITMAP
0400
0400
3F00
64C0
C440
8420
8420
8420
8420
C440
64C0
3F00
0400
0400
ENDCHAR
STARTCHAR 0425
ENCODING 1061
SWIDTH 660 0
DWIDTH 11 0
BBX 11 12 0 0
BITMAP
C060
60C0
2180
1100
1A00
0C00
0C00
0A00
1100
2180
6080
C060
ENDCHAR
STARTCHAR 0426
ENCODING 1062
SWIDTH 720 0
DWIDTH 12 0
BBX 10 15 2 -3
BITMAP
8100
8100
8100
8100
8100
8100
8100
8100
8100
8100
8100
FFC0
0040
0040
0040
ENDCHAR
STARTCHAR 0427
ENCODING 1063
SWIDTH 600 0
DWIDTH 10 0
BBX 8 12 1 0
BITMAP
81
81
81
81
81
C1
7F
01
01
01
01
01
ENDCHAR
STARTCHAR 0428
ENCODING 1064
SWIDTH 960 0
DWIDTH 16 0
BBX 12 12 2 0
BITMAP
8610
8610
8610
8610
8610
8610
8610
8610
8610
8610
8610
FFF0
ENDCHAR
STARTCHAR 0429
ENCODING 1065
SWIDTH 960 0
DWIDTH 16 0
BBX 14 15 2 -3
BITMAP
8610
8610
8610
8610
8610
8610
8610
8610
8610
8610
8610
FFFC
0004
0004
0004
ENDCHAR
STARTCHAR 042A
ENCODING 1066
SWIDTH 780 0
DWIDTH 13 0
BBX 12 12 0 0
BITMAP
F800
0800
0800
0800
0FC0
0820
0810
0810
0810
0810
0820
0FC0
ENDCHAR
STARTCHAR 042B
ENCODING 1067
SWIDTH 840 0
DWIDTH 14 0
BBX 10 12 2 0
BITMAP
8040
8040
8040
8040
FC40
8640
8240
8240
8340
8240
8640
FC40
ENDCHAR
STARTCHAR 042C
ENCODING 1068
SWIDTH 600 0
DWIDTH 10 0
BBX 8 12 2 0
BITMAP
80
80
80
80
FC
86
82
82
83
82
86
FC
ENDCHAR
STARTCHAR 042D
ENCODING 1069
SWIDTH 720 0
DWIDTH 12 0
BBX 10 12 1 0
BITMAP
3E00
C100
8080
0040
0040
1FC0
0040
0040
00C0
8080
C300
3E00
ENDCHAR
STARTCHAR 042E
ENCODING 1070
SWIDTH 1020 0
DWIDTH 17 0
BBX 14 12 2 0
BITMAP
83E0
8430
8808
9808
9004
F004
9004
9004
8808
8808
8430
83E0
ENDCHAR
STARTCHAR 042F
ENCODING 1071
SWIDTH 660 0
DWIDTH 11 0
BBX 8 12 1 0
BITMAP
3F
41
C1
81
C1
41
3F
31
21
41
C1
81
ENDCHAR
STARTCHAR 0430
ENCODING 1072
SWIDTH 540 0
DWIDTH 9 0
BBX 7 9 1 0
BITMAP
7C
86
02
7E
C2
82
82
86
7A
ENDCHAR
STARTCHAR 0431
ENCODING 1073
SWIDTH 600 0
DWIDTH 10 0
BBX 8 13 1 0
BITMAP
06
38
60
40
BC
C2
C1
81
81
81
C1
62
3C
ENDCHAR
STARTCHAR 0432
ENCODING 1074
SWIDTH 540 0
DWIDTH 9 0
BBX 7 9 1 0
BITMAP
FC
86
82
86
FC
82
82
82
FC
ENDCHAR
STARTCHAR 0433
ENCODING 1075
SWIDTH 420 0
DWIDTH 7 0
BBX 6 9 1 0
BITMAP
FC
80
80
80
80
80
80
80
80
ENDCHAR
STARTCHAR 0434
ENCODING 1076
SWIDTH 600 0
DWIDTH 10 0
BBX 9 12 0 -3
BITMAP
1F00
1100
1100
1100
3100
2100
2100
2100
FF80
8080
8080
8080
ENDCHAR
STARTCHAR 0435
ENCODING 1077
SWIDTH 600 0
DWIDTH 10 0
BBX 8 9 1 0
BITMAP
3C
42
81
81
FF
80
80
43
3C
ENDCHAR
STARTCHAR 0436
ENCODING 1078
SWIDTH 780 0
DWIDTH 13 0
BBX 13 9 0 0
BITMAP
4210
6220
2220
1240
1FC0
3240
2220
4230
C218
ENDCHAR
STARTCHAR 0437
ENCODING 1079
SWIDTH 420 0
DWIDTH 7 0
BBX 6 9 0 0
BITMAP
78
44
04
38
0C
04
04
C4
78
ENDCHAR
STARTCHAR 0438
ENCODING 1080
SWIDTH 600 0
DWIDTH 10 0
BBX 8 9 1 0
BITMAP
83
83
85
89
99
91
A1
C1
C1
ENDCHAR
STARTCHAR 0439
ENCODING 1081
SWIDTH 600 0
DWIDTH 10 0
BBX 8 12 1 0
BITMAP
22
3C
00
83
83
85
89
99
91
A1
C1
C1
ENDCHAR
STARTCHAR 043A
ENCODING 1082
SWIDTH 480 0
DWIDTH 8 0
BBX 7 9 1 0
BITMAP
86
8C
88
90
E0
90
88
84
86
ENDCHAR
STARTCHAR 043B
ENCODING 1083
SWIDTH 540 0
DWIDTH 9 0
BBX 8 9 0 0
BITMAP
1F
31
31
21
21
21
21
41
C1
ENDCHAR
STARTCHAR 043C
ENCODING 1084
SWIDTH 660 0
DWIDTH 11 0
BBX 9 9 1 0
BITMAP
C080
C180
A180
A280
9280
9480
8C80
8880
8080
ENDCHAR
STARTCHAR 043D
ENCODING 1085
SWIDTH 600 0
DWIDTH 10 0
BBX 8 9 1 0
BITMAP
83
83
83
83
FF
83
83
83
83
ENDCHAR
STARTCHAR 043E
ENCODING 1086
SWIDTH 600 0
DWIDTH 10 0
BBX 8 9 1 0
BITMAP
3C
42
81
81
81
81
81
42
3C
ENDCHAR
STARTCHAR 043F
ENCODING 1087
SWIDTH 600 0
DWIDTH 10 0
BBX 7 9 1 0
BITMAP
FE
82
82
82
82
82
82
82
82
ENDCHAR
STARTCHAR 0440
ENCODING 1088
SWIDTH 660 0
DWIDTH 11 0
BBX 9 13 1 -4
BITMAP
9E00
A300
C100
8080
8080
8080
C100
A300
9E00
8000
8000
8000
8000
ENDCHAR
STARTCHAR 0441
ENCODING 1089
SWIDTH 540 0
DWIDTH 9 0
BBX 8 9 1 0
BITMAP
3C
43
80
80
80
80
80
43
3C
ENDCHAR
STARTCHAR 0442
ENCODING 1090
SWIDTH 480 0
DWIDTH 8 0
BBX 8 9 0 0
BITMAP
FF
18
18
18
18
18
18
18
18
ENDCHAR
STARTCHAR 0443
ENCODING 1091
SWIDTH 540 0
DWIDTH 9 0
BBX 9 13 0 -4
BITMAP
C080
4100
4100
2300
2200
1200
1400
1400
0C00
0800
0800
1000
7000
ENDCHAR
STARTCHAR 0444
ENCODING 1092
SWIDTH 720 0
DWIDTH 12 0
BBX 10 16 1 -4
BITMAP
0800
0800
0800
1C00
6B00
C880
8840
8840
8840
88C0
4980
3F00
0800
0800
0800
0800
ENDCHAR
STARTCHAR 0445
ENCODING 1093
SWIDTH 540 0
DWIDTH 9 0
BBX 8 9 0 0
BITMAP
C1
62
24
1C
08
1C
24
62
C1
ENDCHAR
STARTCHAR 0446
ENCODING 1094
SWIDTH 600 0
DWIDTH 10 0
BBX 8 11 1 -2
BITMAP
82
82
82
82
82
82
82
82
FF
01
01
ENDCHAR
STARTCHAR 0447
ENCODING 1095
SWIDTH 480 0
DWIDTH 8 0
BBX 6 9 1 0
BITMAP
84
84
84
84
84
7C
04
04
04
ENDCHAR
STARTCHAR 0448
ENCODING 1096
SWIDTH 780 0
DWIDTH 13 0
BBX 10 9 1 0
BITMAP
8440
8440
8440
8440
8440
8440
8440
8440
FFC0
ENDCHAR
STARTCHAR 0449
ENCODING 1097
SWIDTH 780 0
DWIDTH 13 0
BBX 12 11 1 -2
BITMAP
8440
8440
8440
8440
8440
8440
8440
8440
FFF0
0010
0010
ENDCHAR
STARTCHAR 044A
ENCODING 1098
SWIDTH 600 0
DWIDTH 10 0
BBX 9 9 0 0
BITMAP
F000
1000
1000
1F00
1180
1080
1080
1080
1F00
ENDCHAR
STARTCHAR 044B
ENCODING 1099
SWIDTH 660 0
DWIDTH 11 0
BBX 9 9 1 0
BITMAP
8180
8180
8180
F980
8580
8580
8580
8580
F980
ENDCHAR
STARTCHAR 044C
ENCODING 1100
SWIDTH 480 0
DWIDTH 8 0
BBX 6 9 1 0
BITMAP
80
80
80
F8
84
84
84
84
F8
ENDCHAR
STARTCHAR 044D
ENCODING 1101
SWIDTH 540 0
DWIDTH 9 0
BBX 9 9 0 0
BITMAP
3C00
4200
4100
0100
1F80
0100
8100
4200
3C00
ENDCHAR
STARTCHAR 044E
ENCODING 1102
SWIDTH 780 0
DWIDTH 13 0
BBX 11 9 1 0
BITMAP
8780
88C0
9060
9020
F020
9020
9060
8840
8780
ENDCHAR
STARTCHAR 044F
ENCODING 1103
SWIDTH 480 0
DWIDTH 8 0
BBX 6 9 1 0
BITMAP
7C
C4
84
84
C4
7C
64
44
84
ENDCHAR
STARTCHAR 0450
ENCODING 1104
SWIDTH 600 0
DWIDTH 10 0
BBX 8 12 1 0
BITMAP
30
08
00
3C
42
81
81
FF
80
80
43
3C
ENDCHAR
STARTCHAR 0451
ENCODING 1105
SWIDTH 600 0
DWIDTH 10 0
BBX 8 12 1 0
BITMAP
24
00
00
3C
42
81
81
FF
80
80
43
3C
ENDCHAR
STARTCHAR 0452
ENCODING 1106
SWIDTH 600 0
DWIDTH 10 0
BBX 9 15 0 -3
BITMAP
4000
FC00
4000
4F00
5100
6180
6080
4080
4080
4080
4080
4080
0080
0100
0F00
ENDCHAR
STARTCHAR 0453
ENCODING 1107
SWIDTH 420 0
DWIDTH 7 0
BBX 6 12 1 0
BITMAP
10
20
00
FC
80
80
80
80
80
80
80
80
ENDCHAR
STARTCHAR 0454
ENCODING 1108
SWIDTH 540 0
DWIDTH 9 0
BBX 8 9 1 0
BITMAP
3C
42
83
80
F8
80
80
43
3C
ENDCHAR
STARTCHAR 0455
ENCODING 1109
SWIDTH 480 0
DWIDTH 8 0
BBX 8 9 0 0
BITMAP
3C
42
40
60
1C
02
01
C2
3C
ENDCHAR
STARTCHAR 0456
ENCODING 1110
SWIDTH 240 0
DWIDTH 4 0
BBX 1 12 1 0
BITMAP
80
80
00
80
80
80
80
80
80
80
80
80
ENDCHAR
STARTCHAR 0457
ENCODING 1111
SWIDTH 240 0
DWIDTH 4 0
BBX 4 12 0 0
BITMAP
90
00
00
40
40
40
40
40
40
40
40
40
ENDCHAR
STARTCHAR 0458
ENCODING 1112
SWIDTH 240 0
DWIDTH 4 0
BBX 5 15 -2 -3
BITMAP
18
18
00
18
18
18
18
18
18
18
18
18
18
10
F0
ENDCHAR
STARTCHAR 0459
ENCODING 1113
SWIDTH 840 0
DWIDTH 14 0
BBX 13 9 0 0
BITMAP
1F00
3100
3100
2100
21F0
2118
2108
4108
C1F0
ENDCHAR
STARTCHAR 045A
ENCODING 1114
SWIDTH 840 0
DWIDTH 14 0
BBX 12 9 1 0
BITMAP
8200
8200
8200
8200
FFE0
8210
8210
8210
83E0
ENDCHAR
STARTCHAR 045B
ENCODING 1115
SWIDTH 600 0
DWIDTH 10 0
BBX 9 12 0 0
BITMAP
4000
FC00
4000
4F00
5100
6180
6080
4080
4080
4080
4080
4080
ENDCHAR
STARTCHAR 045C
ENCODING 1116
SWIDTH 480 0
DWIDTH 8 0
BBX 7 12 1 0
BITMAP
18
10
00
86
8C
88
90
E0
90
88
84
86
ENDCHAR
STARTCHAR 045D
ENCODING 1117
SWIDTH 600 0
DWIDTH 10 0
BBX 8 12 1 0
BITMAP
30
10
00
83
83
85
89
99
91
A1
C1
C1
ENDCHAR
STARTCHAR 045E
ENCODING 1118
SWIDTH 540 0
DWIDTH 9 0
BBX 9 16 0 -4
BITMAP
2200
1E00
0000
C080
4100
4100
2300
2200
1200
1400
1400
0C00
0800
0800
1000
3000
ENDCHAR
STARTCHAR 045F
ENCODING 1119
SWIDTH 540 0
DWIDTH 9 0
BBX 7 11 1 -2
BITMAP
82
82
82
82
82
82
82
82
FE
10
10
ENDCHAR
STARTCHAR 0490
ENCODING 1168
SWIDTH 540 0
DWIDTH 9 0
BBX 7 15 2 0
BITMAP
02
02
02
FE
80
80
80
80
80
80
80
80
80
80
80
ENDCHAR
STARTCHAR 0491
ENCODING 1169
SWIDTH 420 0
DWIDTH 7 0
BBX 6 12 1 0
BITMAP
04
04
04
FC
80
80
80
80
80
80
80
80
ENDCHAR
STARTCHAR 04B0
ENCODING 1200
SWIDTH 660 0
DWIDTH 11 0
BBX 11 12 0 0
BITMAP
C060
40C0
2080
2100
1100
1A00
0E00
0400
3F00
0400
0400
0400
ENDCHAR
STARTCHAR 04B1
ENCODING 1201
SWIDTH 540 0
DWIDTH 9 0
BBX 9 13 0 -4
BITMAP
C080
4100
6100
2200
3200
1400
1400
0800
3F00
0800
0800
0800
0800
ENDCHAR
STARTCHAR 1E0C
ENCODING 7692
SWIDTH 720 0
DWIDTH 12 0
BBX 9 15 2 -3
BITMAP
FC00
8300
8100
8080
8080
8080
8080
8080
8080
8100
8300
FC00
0000
1000
1000
ENDCHAR
STARTCHAR 1E0D
ENCODING 7693
SWIDTH 660 0
DWIDTH 11 0
BBX 9 15 1 -3
BITMAP
0100
0100
0100
3D00
4300
8100
8100
8100
8100
C100
6300
3D80
0000
0800
0800
ENDCHAR
STARTCHAR 1E24
ENCODING 7716
SWIDTH 780 0
DWIDTH 13 0
BBX 9 15 2 -3
BITMAP
8080
8080
8080
8080
8080
FF80
8080
8080
8080
8080
8080
8080
0000
0800
0800
ENDCHAR
STARTCHAR 1E25
ENCODING 7717
SWIDTH 600 0
DWIDTH 10 0
BBX 8 15 1 -3
BITMAP
80
80
80
9E
A2
C3
81
81
81
81
81
81
00
08
08
ENDCHAR
STARTCHAR 1E44
ENCODING 7748
SWIDTH 780 0
DWIDTH 13 0
BBX 10 16 2 0
BITMAP
0800
0800
0000
0000
80C0
C0C0
C0C0
A0C0
B0C0
98C0
8CC0
84C0
82C0
81C0
81C0
80C0
ENDCHAR
STARTCHAR 1E45
ENCODING 7749
SWIDTH 600 0
DWIDTH 10 0
BBX 8 12 1 0
BITMAP
18
18
00
9E
A2
C3
81
81
81
81
81
81
ENDCHAR
STARTCHAR 1E5A
ENCODING 7770
SWIDTH 660 0
DWIDTH 11 0
BBX 8 15 2 -3
BITMAP
FC
83
81
81
81
83
FE
84
84
82
83
81
00
10
10
ENDCHAR
STARTCHAR 1E5B
ENCODING 7771
SWIDTH 360 0
DWIDTH 6 0
BBX 5 12 1 -3
BITMAP
98
A0
C0
80
80
80
80
80
80
00
80
80
ENDCHAR
STARTCHAR 1E62
ENCODING 7778
SWIDTH 600 0
DWIDTH 10 0
BBX 9 15 1 -3
BITMAP
3E00
4100
8000
8000
C000
7800
0F00
0100
0180
8180
C100
3E00
0000
0800
0800
ENDCHAR
STARTCHAR 1E63
ENCODING 7779
SWIDTH 480 0
DWIDTH 8 0
BBX 8 12 0 -3
BITMAP
3C
42
40
60
1C
02
01
C2
3C
00
08
08
ENDCHAR
STARTCHAR 1E6C
ENCODING 7788
SWIDTH 600 0
DWIDTH 10 0
BBX 10 15 0 -3
BITMAP
FFC0
0400
0400
0400
0400
0400
0400
0400
0400
0400
0400
0400
0000
0400
0400
ENDCHAR
STARTCHAR 1E6D
ENCODING 7789
SWIDTH 360 0
DWIDTH 6 0
BBX 6 15 0 -3
BITMAP
20
20
20
F8
20
20
20
20
20
20
20
3C
00
10
10
ENDCHAR
STARTCHAR 1E80
ENCODING 7808
SWIDTH 1080 0
DWIDTH 18 0
BBX 18 16 0 0
BITMAP
018000
008000
004000
000000
C230C0
412080
612180
21C100
20C300
10C200
10C200
192400
092400
0A2C00
061800
061800
ENDCHAR
STARTCHAR 1E81
ENCODING 7809
SWIDTH 840 0
DWIDTH 14 0
BBX 14 12 0 0
BITMAP
0600
0300
0000
C48C
4508
4318
2310
2310
1520
14A0
14C0
0840
ENDCHAR
STARTCHAR 1E82
ENCODING 7810
SWIDTH 1080 0
DWIDTH 18 0
BBX 18 16 0 0
BITMAP
004000
00C000
000000
000000
C230C0
412080
612180
21C100
20C300
10C200
10C200
192400
092400
0A2C00
061800
061800
ENDCHAR
STARTCHAR 1E83
ENCODING 7811
SWIDTH 840 0
DWIDTH 14 0
BBX 14 12 0 0
BITMAP
0100
0200
0000
C48C
4508
4318
2310
2310
1520
14A0
14C0
0840
ENDCHAR
STARTCHAR 1E84
ENCODING 7812
SWIDTH 1080 0
DWIDTH 18 0
BBX 18 15 0 0
BITMAP
012000
000000
000000
C230C0
412080
612180
21C100
20C300
10C200
10C200
192400
092400
0A2C00
061800
061800
ENDCHAR
STARTCHAR 1E85
ENCODING 7813
SWIDTH 840 0
DWIDTH 14 0
BBX 14 12 0 0
BITMAP
0480
0000
0000
C48C
4508
4318
2310
2310
1520
14A0
14C0
0840
ENDCHAR
STARTCHAR 1E92
ENCODING 7826
SWIDTH 660 0
DWIDTH 11 0
BBX 9 15 1 -3
BITMAP
FF80
0180
0100
0200
0400
0800
1800
3000
2000
4000
8000
FF80
0000
0800
0800
ENDCHAR
STARTCHAR 1E93
ENCODING 7827
SWIDTH 480 0
DWIDTH 8 0
BBX 7 12 1 -3
BITMAP
FE
04
08
18
10
20
40
80
FE
00
10
10
ENDCHAR
STARTCHAR 1EB8
ENCODING 7864
SWIDTH 600 0
DWIDTH 10 0
BBX 8 15 2 -3
BITMAP
FE
80
80
80
80
FE
80
80
80
80
80
FF
00
10
10
ENDCHAR
STARTCHAR 1EB9
ENCODING 7865
SWIDTH 600 0
DWIDTH 10 0
BBX 8 12 1 -3
BITMAP
3C
42
81
81
FF
80
80
43
3C
00
08
08
ENDCHAR
STARTCHAR 1EBC
ENCODING 7868
SWIDTH 600 0
DWIDTH 10 0
BBX 8 16 2 0
BITMAP
32
5C
00
00
FE
80
80
80
80
FE
80
80
80
80
80
FF
ENDCHAR
STARTCHAR 1EBD
ENCODING 7869
SWIDTH 600 0
DWIDTH 10 0
BBX 8 12 1 0
BITMAP
7E
00
00
3C
42
81
81
FF
80
80
43
3C
ENDCHAR
STARTCHAR 1ECA
ENCODING 7882
SWIDTH 240 0
DWIDTH 4 0
BBX 1 15 2 -3
BITMAP
80
80
80
80
80
80
80
80
80
80
80
80
00
80
80
ENDCHAR
STARTCHAR 1ECB
ENCODING 7883
SWIDTH 240 0
DWIDTH 4 0
BBX 1 15 1 -3
BITMAP
80
80
00
80
80
80
80
80
80
80
80
80
00
80
80
ENDCHAR
STARTCHAR 1ECC
ENCODING 7884
SWIDTH 780 0
DWIDTH 13 0
BBX 11 15 1 -3
BITMAP
1F00
2180
4040
C040
8020
8020
8020
8020
8060
4040
2180
1F00
0000
0400
0400
ENDCHAR
STARTCHAR 1ECD
ENCODING 7885
SWIDTH 600 0
DWIDTH 10 0
BBX 8 12 1 -3
BITMAP
3C
42
81
81
81
81
81
42
3C
00
08
08
ENDCHAR
STARTCHAR 1EE4
ENCODING 7908
SWIDTH 780 0
DWIDTH 13 0
BBX 11 15 1 -3
BITMAP
C060
C060
C060
C060
C060
C060
C060
C040
4040
40C0
2180
1F00
0000
0400
0400
ENDCHAR
STARTCHAR 1EE5
ENCODING 7909
SWIDTH 600 0
DWIDTH 10 0
BBX 8 12 1 -3
BITMAP
81
81
81
81
81
81
C3
45
79
00
10
10
ENDCHAR
STARTCHAR 1EF2
ENCODING 7922
SWIDTH 660 0
DWIDTH 11 0
BBX 11 16 0 0
BITMAP
0800
0400
0000
0000
C060
4040
2080
3180
1100
0A00
0E00
0400
0400
0400
0400
0400
ENDCHAR
STARTCHAR 1EF3
ENCODING 7923
SWIDTH 540 0
DWIDTH 9 0
BBX 9 16 0 -4
BITMAP
1800
0800
0000
C080
4100
4100
2300
2200
1200
1400
1400
0C00
0800
0800
1000
3000
ENDCHAR
STARTCHAR 1EF8
ENCODING 7928
SWIDTH 660 0
DWIDTH 11 0
BBX 11 16 0 0
BITMAP
1900
1700
0000
0000
C060
4040
2080
3180
1100
0A00
0E00
0400
0400
0400
0400
0400
ENDCHAR
STARTCHAR 1EF9
ENCODING 7929
SWIDTH 540 0
DWIDTH 9 0
BBX 9 16 0 -4
BITMAP
3E00
0000
0000
C080
4100
4100
2300
2200
1200
1400
1400
0C00
0800
0800
1000
3000
ENDCHAR
STARTCHAR 2002
ENCODING 8194
SWIDTH 600 0
DWIDTH 10 0
BBX 0 0 0 0
BITMAP
ENDCHAR
STARTCHAR 2003
ENCODING 8195
SWIDTH 960 0
DWIDTH 16 0
BBX 0 0 0 0
BITMAP
ENDCHAR
STARTCHAR 2013
ENCODING 8211
SWIDTH 600 0
DWIDTH 10 0
BBX 8 1 1 4
BITMAP
FF
ENDCHAR
STARTCHAR 2014
ENCODING 8212
SWIDTH 900 0
DWIDTH 15 0
BBX 13 1 1 4
BITMAP
FFF8
ENDCHAR
STARTCHAR 2018
ENCODING 8216
SWIDTH 180 0
DWIDTH 3 0
BBX 1 4 1 8
BITMAP
80
80
80
80
ENDCHAR
STARTCHAR 2019
ENCODING 8217
SWIDTH 180 0
DWIDTH 3 0
BBX 1 4 1 8
BITMAP
80
80
80
80
ENDCHAR
STARTCHAR 201A
ENCODING 8218
SWIDTH 240 0
DWIDTH 4 0
BBX 1 3 1 -1
BITMAP
80
80
80
ENDCHAR
STARTCHAR 201C
ENCODING 8220
SWIDTH 300 0
DWIDTH 5 0
BBX 3 4 1 8
BITMAP
A0
A0
A0
A0
ENDCHAR
STARTCHAR 201D
ENCODING 8221
SWIDTH 300 0
DWIDTH 5 0
BBX 3 4 1 8
BITMAP
A0
A0
A0
A0
ENDCHAR
STARTCHAR 201E
ENCODING 8222
SWIDTH 360 0
DWIDTH 6 0
BBX 3 3 1 -1
BITMAP
A0
A0
A0
ENDCHAR
STARTCHAR 2020
ENCODING 8224
SWIDTH 420 0
DWIDTH 7 0
BBX 5 15 1 -2
BITMAP
20
20
20
20
20
20
20
20
F8
20
20
20
20
20
20
ENDCHAR
STARTCHAR 2021
ENCODING 8225
SWIDTH 420 0
DWIDTH 7 0
BBX 5 15 1 -2
BITMAP
20
20
20
20
20
20
F8
20
20
F8
20
20
20
20
20
ENDCHAR
STARTCHAR 2022
ENCODING 8226
SWIDTH 360 0
DWIDTH 6 0
BBX 4 3 1 4
BITMAP
60
F0
60
ENDCHAR
STARTCHAR 2026
ENCODING 8230
SWIDTH 480 0
DWIDTH 8 0
BBX 6 2 1 0
BITMAP
A4
A4
ENDCHAR
STARTCHAR 2030
ENCODING 8240
SWIDTH 1080 0
DWIDTH 18 0
BBX 17 12 1 0
BITMAP
704000
88C000
888000
890000
720000
040000
080000
118600
324900
243080
424900
83CF00
ENDCHAR
STARTCHAR 2039
ENCODING 8249
SWIDTH 360 0
DWIDTH 6 0
BBX 4 7 1 1
BITMAP
10
30
40
80
40
20
10
ENDCHAR
STARTCHAR 203A
ENCODING 8250
SWIDTH 360 0
DWIDTH 6 0
BBX 4 7 1 1
BITMAP
80
C0
20
10
20
40
80
ENDCHAR
STARTCHAR 2044
ENCODING 8260
SWIDTH 180 0
DWIDTH 3 0
BBX 10 12 -4 0
BITMAP
0040
0080
0080
0100
0200
0400
0800
0800
1000
2000
4000
8000
ENDCHAR
STARTCHAR 2070
ENCODING 8304
SWIDTH 480 0
DWIDTH 8 0
BBX 6 7 1 7
BITMAP
70
C8
84
84
84
8C
78
ENDCHAR
STARTCHAR 2074
ENCODING 8308
SWIDTH 420 0
DWIDTH 7 0
BBX 6 7 0 7
BITMAP
08
18
28
48
FC
08
08
ENDCHAR
STARTCHAR 2075
ENCODING 8309
SWIDTH 360 0
DWIDTH 6 0
BBX 5 7 1 7
BITMAP
F0
80
F0
98
08
88
F0
ENDCHAR
STARTCHAR 2076
ENCODING 8310
SWIDTH 420 0
DWIDTH 7 0
BBX 5 7 1 7
BITMAP
70
88
F0
88
88
88
70
ENDCHAR
STARTCHAR 2077
ENCODING 8311
SWIDTH 360 0
DWIDTH 6 0
BBX 6 7 0 7
BITMAP
FC
08
08
10
20
20
40
ENDCHAR
STARTCHAR 2078
ENCODING 8312
SWIDTH 420 0
DWIDTH 7 0
BBX 5 7 1 7
BITMAP
70
88
88
70
88
88
F0
ENDCHAR
STARTCHAR 2079
ENCODING 8313
SWIDTH 420 0
DWIDTH 7 0
BBX 5 7 1 7
BITMAP
70
88
88
88
F8
88
70
ENDCHAR
STARTCHAR 2080
ENCODING 8320
SWIDTH 480 0
DWIDTH 8 0
BBX 6 7 1 -1
BITMAP
70
C8
84
84
84
8C
78
ENDCHAR
STARTCHAR 2081
ENCODING 8321
SWIDTH 300 0
DWIDTH 5 0
BBX 4 7 1 -1
BITMAP
40
C0
40
40
40
40
F0
ENDCHAR
STARTCHAR 2082
ENCODING 8322
SWIDTH 420 0
DWIDTH 7 0
BBX 5 7 1 -1
BITMAP
70
88
08
30
40
80
F8
ENDCHAR
STARTCHAR 2083
ENCODING 8323
SWIDTH 420 0
DWIDTH 7 0
BBX 5 7 1 -1
BITMAP
70
88
08
70
08
88
F0
ENDCHAR
STARTCHAR 2084
ENCODING 8324
SWIDTH 420 0
DWIDTH 7 0
BBX 6 7 0 -2
BITMAP
08
18
28
48
FC
08
08
ENDCHAR
STARTCHAR 2085
ENCODING 8325
SWIDTH 360 0
DWIDTH 6 0
BBX 5 7 1 -1
BITMAP
F0
80
F0
98
08
88
F0
ENDCHAR
STARTCHAR 2086
ENCODING 8326
SWIDTH 420 0
DWIDTH 7 0
BBX 5 7 1 -1
BITMAP
70
88
F0
88
88
88
70
ENDCHAR
STARTCHAR 2087
ENCODING 8327
SWIDTH 360 0
DWIDTH 6 0
BBX 6 7 0 -1
BITMAP
FC
08
08
10
20
20
40
ENDCHAR
STARTCHAR 2088
ENCODING 8328
SWIDTH 420 0
DWIDTH 7 0
BBX 5 7 1 -1
BITMAP
70
88
88
70
88
88
F0
ENDCHAR
STARTCHAR 2089
ENCODING 8329
SWIDTH 420 0
DWIDTH 7 0
BBX 5 7 1 -1
BITMAP
70
88
88
88
78
88
F0
ENDCHAR
STARTCHAR 20A1
ENCODING 8353
SWIDTH 540 0
DWIDTH 9 0
BBX 8 13 1 -2
BITMAP
18
18
3C
43
80
80
80
80
80
43
3C
18
18
ENDCHAR
STARTCHAR 20A3
ENCODING 8355
SWIDTH 600 0
DWIDTH 10 0
BBX 10 12 0 0
BITMAP
3FC0
2000
2000
2000
2000
3F80
2000
2000
2000
F800
2000
2000
ENDCHAR
STARTCHAR 20A4
ENCODING 8356
SWIDTH 480 0
DWIDTH 8 0
BBX 7 12 1 0
BITMAP
38
44
80
80
40
FC
20
FC
20
60
C0
FE
ENDCHAR
STARTCHAR 20A6
ENCODING 8358
SWIDTH 840 0
DWIDTH 14 0
BBX 13 12 1 0
BITMAP
4020
6020
7020
5820
4C20
FFF8
FFF8
4120
40A0
40E0
4060
4020
ENDCHAR
STARTCHAR 20A9
ENCODING 8361
SWIDTH 1140 0
DWIDTH 19 0
BBX 17 12 1 0
BITMAP
822080
C22180
414100
414100
FFFF80
208200
FF7F80
114400
114400
0A2800
0A2800
041000
ENDCHAR
STARTCHAR 20AC
ENCODING 8364
SWIDTH 840 0
DWIDTH 14 0
BBX 12 12 1 0
BITMAP
0780
1860
3030
2000
6000
FF00
FF00
2000
2000
1030
1860
0780
ENDCHAR
STARTCHAR 20B9
ENCODING 8377
SWIDTH 480 0
DWIDTH 8 0
BBX 6 12 1 0
BITMAP
FC
30
FC
08
08
18
B0
60
60
20
10
18
ENDCHAR
STARTCHAR 2113
ENCODING 8467
SWIDTH 300 0
DWIDTH 5 0
BBX 4 13 1 0
BITMAP
20
D0
90
90
90
A0
A0
C0
80
80
80
80
70
ENDCHAR
STARTCHAR 2116
ENCODING 8470
SWIDTH 1140 0
DWIDTH 19 0
BBX 17 12 2 0
BITMAP
80CF00
C0D080
C0D080
A0D080
90D080
98CF00
8CC000
84C000
82C000
81C000
81C000
80C000
ENDCHAR
STARTCHAR 2120
ENCODING 8480
SWIDTH 720 0
DWIDTH 12 0
BBX 10 5 1 7
BITMAP
F440
86C0
66C0
1540
E440
ENDCHAR
STARTCHAR 2122
ENCODING 8482
SWIDTH 720 0
DWIDTH 12 0
BBX 10 5 1 7
BITMAP
F440
26C0
26C0
2540
2440
ENDCHAR
STARTCHAR 2126
ENCODING 8486
SWIDTH 780 0
DWIDTH 13 0
BBX 11 12 1 0
BITMAP
1F00
2080
4040
C060
8020
8020
8020
8020
4040
4040
3180
FBE0
ENDCHAR
STARTCHAR 212E
ENCODING 8494
SWIDTH 600 0
DWIDTH 10 0
BBX 9 9 1 0
BITMAP
3E00
4100
8100
8180
FF80
8000
8000
4100
3E00
ENDCHAR
STARTCHAR 2153
ENCODING 8531
SWIDTH 900 0
DWIDTH 15 0
BBX 13 12 1 0
BITMAP
C020
4040
4080
4100
4200
4470
E488
0808
1070
2008
4088
40F0
ENDCHAR
STARTCHAR 2154
ENCODING 8532
SWIDTH 900 0
DWIDTH 15 0
BBX 13 12 1 0
BITMAP
7020
8830
0840
7080
8080
F9F0
0208
0408
0870
1008
2088
2070
ENDCHAR
STARTCHAR 215B
ENCODING 8539
SWIDTH 900 0
DWIDTH 15 0
BBX 13 12 1 0
BITMAP
C020
4040
4080
4100
4100
4270
E488
0888
1070
2088
2088
40F0
ENDCHAR
STARTCHAR 215C
ENCODING 8540
SWIDTH 900 0
DWIDTH 15 0
BBX 13 12 1 0
BITMAP
7020
8820
0840
7080
0900
8A70
7288
0488
0870
1088
2088
40F0
ENDCHAR
STARTCHAR 215D
ENCODING 8541
SWIDTH 900 0
DWIDTH 15 0
BBX 13 12 1 0
BITMAP
7020
8020
F040
8880
0900
F270
0488
0488
0870
1088
2088
4070
ENDCHAR
STARTCHAR 215E
ENCODING 8542
SWIDTH 840 0
DWIDTH 14 0
BBX 13 12 1 0
BITMAP
F840
1040
1080
2100
2200
4470
8890
1888
1070
2098
4108
80F0
ENDCHAR
STARTCHAR 2202
ENCODING 8706
SWIDTH 600 0
DWIDTH 10 0
BBX 9 12 0 0
BITMAP
3E00
2100
0100
0080
0080
3E80
4180
4180
C100
4100
4200
3C00
ENDCHAR
STARTCHAR 2206
ENCODING 8710
SWIDTH 600 0
DWIDTH 10 0
BBX 10 12 0 0
BITMAP
0400
0C00
0A00
1200
1300
3100
2100
2080
4080
40C0
C040
FFC0
ENDCHAR
STARTCHAR 220F
ENCODING 8719
SWIDTH 720 0
DWIDTH 12 0
BBX 10 14 1 -2
BITMAP
FFC0
4080
4080
4080
4080
4080
4080
4080
4080
4080
4080
4080
4080
4080
ENDCHAR
STARTCHAR 2211
ENCODING 8721
SWIDTH 540 0
DWIDTH 9 0
BBX 7 12 1 0
BITMAP
FE
C0
40
20
30
18
10
20
60
40
80
FE
ENDCHAR
STARTCHAR 2212
ENCODING 8722
SWIDTH 540 0
DWIDTH 9 0
BBX 7 1 1 5
BITMAP
FE
ENDCHAR
STARTCHAR 2215
ENCODING 8725
SWIDTH 600 0
DWIDTH 10 0
BBX 10 12 0 0
BITMAP
0040
0080
0100
0300
0200
0400
0800
1000
3000
6000
4000
8000
ENDCHAR
STARTCHAR 2219
ENCODING 8729
SWIDTH 180 0
DWIDTH 3 0
BBX 1 2 1 4
BITMAP
80
80
ENDCHAR
STARTCHAR 221A
ENCODING 8730
SWIDTH 480 0
DWIDTH 8 0
BBX 7 13 0 0
BITMAP
02
06
04
04
04
04
04
E8
28
28
28
18
10
ENDCHAR
STARTCHAR 221E
ENCODING 8734
SWIDTH 720 0
DWIDTH 12 0
BBX 10 6 1 3
BITMAP
7380
9CC0
8C40
8840
8CC0
7380
ENDCHAR
STARTCHAR 222B
ENCODING 8747
SWIDTH 300 0
DWIDTH 5 0
BBX 5 17 0 -3
BITMAP
38
20
20
20
20
20
20
20
20
20
20
20
20
20
20
20
E0
ENDCHAR
STARTCHAR 2248
ENCODING 8776
SWIDTH 420 0
DWIDTH 7 0
BBX 5 3 1 3
BITMAP
F8
40
B8
ENDCHAR
STARTCHAR 2260
ENCODING 8800
SWIDTH 480 0
DWIDTH 8 0
BBX 6 7 1 1
BITMAP
08
10
FC
20
FC
40
40
ENDCHAR
STARTCHAR 2264
ENCODING 8804
SWIDTH 480 0
DWIDTH 8 0
BBX 6 8 1 1
BITMAP
08
30
C0
60
18
04
00
FC
ENDCHAR
STARTCHAR 2265
ENCODING 8805
SWIDTH 480 0
DWIDTH 8 0
BBX 6 8 1 1
BITMAP
C0
70
1C
18
E0
80
00
FC
ENDCHAR
STARTCHAR 25CA
ENCODING 9674
SWIDTH 540 0
DWIDTH 9 0
BBX 7 12 1 0
BITMAP
30
28
48
44
84
82
82
C4
44
68
28
30
ENDCHAR
STARTCHAR F6C3
ENCODING 63171
SWIDTH 180 0
DWIDTH 3 0
BBX 1 2 1 -3
BITMAP
80
80
ENDCHAR
STARTCHAR FB00
ENCODING 64256
SWIDTH 600 0
DWIDTH 10 0
BBX 10 12 0 0
BITMAP
1DC0
2200
2200
FFC0
2200
2200
2200
2200
2200
2200
2200
2200
ENDCHAR
STARTCHAR FB01
ENCODING 64257
SWIDTH 540 0
DWIDTH 9 0
BBX 7 12 0 0
BITMAP
1E
20
20
FE
22
22
22
22
22
22
22
22
ENDCHAR
STARTCHAR FB02
ENCODING 64258
SWIDTH 600 0
DWIDTH 10 0
BBX 10 12 0 0
BITMAP
1E00
2300
2100
F900
2100
2100
2100
2100
2100
2100
2100
21C0
ENDCHAR
STARTCHAR FB03
ENCODING 64259
SWIDTH 720 0
DWIDTH 12 0
BBX 11 12 0 0
BITMAP
1DE0
2200
2200
FFE0
2220
2220
2220
2220
2220
2220
2220
2220
ENDCHAR
STARTCHAR FB04
ENCODING 64260
SWIDTH 840 0
DWIDTH 14 0
BBX 14 12 0 0
BITMAP
1DE0
2230
2210
FF90
2210
2210
2210
2210
2210
2210
2210
221C
ENDCHAR
STARTCHAR FB06
ENCODING 64262
SWIDTH 840 0
DWIDTH 14 0
BBX 13 12 1 0
BITMAP
0780
0440
0840
7CF0
8440
8040
8040
7840
0440
0240
8440
7878
ENDCHAR
ENDFONT
